<svg xmlns="http://www.w3.org/2000/svg" width="783" height="366" viewBox="0 0 783 366" fill="none">
<g id="Подъезд 2_Этажи 2-10">
<path id="1" d="M199 41H269.364V28H328V41.4574V186H199V41Z" fill="white"/>
<path id="2" d="M68 54H132.5V41H199V186H88.0726V171H68V54Z" fill="white"/>
<path id="3" d="M2.87126 67.5H66L66.1288 170.698H88.5V232H125.5V354H65H58V365H1.5V338.658H3.00002L2.87126 67.5Z" fill="white"/>
<path id="4" d="M126 232.5H175.5V217H212.25V232.5H249V354.464H182V365H130V354H126V232.5Z" fill="white"/>
<path id="5" d="M380 237.5H330V217H289.5V232.5H249V354.464H320.358V365H375.74H380V354V237.5Z" fill="white"/>
<path id="6" d="M381 232H434V216H470V232H511V354.5H439.5V364.5L381 365V351V232Z" fill="white"/>
<path id="7" d="M511 232H578V217.5H670.5V232H715V354.105H573.5V364.82H515.5V354.105H511V232Z" fill="white"/>
<path id="8" d="M716 67.5H782V365H720V346.692H716V230H696.5V170H716V67.5Z" fill="white"/>
<path id="9" d="M715 54.265H650V42H584V186H694.69V170H715V54.265Z" fill="white"/>
<path id="10" d="M583.5 40.5H517V28H454V186H563H583V168.444L583.5 40.5Z" fill="white"/>
</g>
</svg>