<svg width="97" height="86" viewBox="0 0 97 86" fill="none" xmlns="http://www.w3.org/2000/svg">
<line x1="47.2998" y1="30.9" x2="47.2998" y2="57.9" stroke="#53667F" stroke-opacity="0.3"/>
<path fill-rule="evenodd" clip-rule="evenodd" d="M49.7998 44.9H60.7998V43.9H49.7998V44.9ZM44.7998 44.9V43.9H33.7998V44.9H44.7998Z" fill="#53667F" fill-opacity="0.3"/>
<path d="M44.5037 18.2H47.6607C48.4674 18.2 49.1054 18.3687 49.5747 18.706C50.044 19.036 50.2787 19.5164 50.2787 20.147C50.2787 20.6017 50.1577 20.9757 49.9157 21.269C49.6737 21.555 49.384 21.7494 49.0467 21.852C49.4574 21.962 49.8167 22.1747 50.1247 22.49C50.4327 22.798 50.5867 23.2307 50.5867 23.788C50.5867 24.1254 50.5207 24.4224 50.3887 24.679C50.264 24.9357 50.1027 25.141 49.9047 25.295C49.714 25.4417 49.4867 25.5627 49.2227 25.658C48.966 25.7534 48.7167 25.8194 48.4747 25.856C48.24 25.8854 47.998 25.9 47.7487 25.9H44.5037V18.2ZM49.6517 23.689C49.6517 22.8017 49.0394 22.358 47.8147 22.358H45.4277V25.02H47.5617C47.7964 25.02 47.9944 25.0164 48.1557 25.009C48.317 24.9944 48.5004 24.965 48.7057 24.921C48.911 24.8697 49.076 24.8 49.2007 24.712C49.3254 24.6167 49.4317 24.4847 49.5197 24.316C49.6077 24.14 49.6517 23.931 49.6517 23.689ZM49.3437 20.279C49.3437 19.8464 49.1934 19.5384 48.8927 19.355C48.5994 19.1717 48.163 19.08 47.5837 19.08H45.4277V21.478H47.8367C48.2767 21.478 48.636 21.3827 48.9147 21.192C49.2007 20.994 49.3437 20.6897 49.3437 20.279Z" fill="#252831"/>
<path d="M22.1747 45.105C22.1747 44.2544 22.3764 43.5174 22.7797 42.894C23.183 42.2634 23.6854 41.8014 24.2867 41.508C24.888 41.2147 25.5334 41.068 26.2227 41.068C27.0147 41.068 27.737 41.2404 28.3897 41.585V42.509C27.8324 42.135 27.1614 41.948 26.3767 41.948C25.4967 41.948 24.734 42.2194 24.0887 42.762C23.4434 43.2974 23.117 44.0784 23.1097 45.105C23.1097 45.7577 23.2747 46.3224 23.6047 46.799C23.942 47.2757 24.3527 47.6204 24.8367 47.833C25.328 48.0457 25.8524 48.152 26.4097 48.152C27.2384 48.152 27.9167 47.965 28.4447 47.591V48.515C27.7774 48.8597 27.033 49.032 26.2117 49.032C25.7204 49.032 25.2364 48.9477 24.7597 48.779C24.283 48.603 23.8504 48.3574 23.4617 48.042C23.073 47.7194 22.7614 47.305 22.5267 46.799C22.292 46.2857 22.1747 45.721 22.1747 45.105Z" fill="#252831"/>
<path d="M76.5423 43.587C76.7183 44.0564 76.8063 44.544 76.8063 45.05C76.8063 45.556 76.7183 46.0437 76.5423 46.513C76.3736 46.9824 76.128 47.4077 75.8053 47.789C75.4826 48.163 75.061 48.4637 74.5403 48.691C74.0196 48.9184 73.433 49.032 72.7803 49.032C71.5996 49.032 70.661 48.691 69.9643 48.009C69.275 47.3197 68.879 46.48 68.7763 45.49H67.2363V48.9H66.3123V41.2H67.2363V44.61H68.7763C68.879 43.62 69.275 42.784 69.9643 42.102C70.661 41.4127 71.5996 41.068 72.7803 41.068C73.433 41.068 74.0196 41.1817 74.5403 41.409C75.061 41.6364 75.4826 41.9407 75.8053 42.322C76.128 42.696 76.3736 43.1177 76.5423 43.587ZM69.8763 43.895C69.7516 44.2617 69.6893 44.6467 69.6893 45.05C69.6893 45.4534 69.7516 45.8384 69.8763 46.205C70.0083 46.5717 70.1953 46.9017 70.4373 47.195C70.6866 47.4884 71.013 47.723 71.4163 47.899C71.8196 48.0677 72.2743 48.152 72.7803 48.152C73.2863 48.152 73.741 48.0677 74.1443 47.899C74.5476 47.723 74.8703 47.4884 75.1123 47.195C75.3616 46.9017 75.5486 46.5717 75.6733 46.205C75.8053 45.8384 75.8713 45.4534 75.8713 45.05C75.8713 44.6467 75.8053 44.2617 75.6733 43.895C75.5486 43.5284 75.3616 43.1984 75.1123 42.905C74.8703 42.6117 74.5476 42.3807 74.1443 42.212C73.741 42.036 73.2863 41.948 72.7803 41.948C72.2743 41.948 71.8196 42.036 71.4163 42.212C71.013 42.3807 70.6866 42.6117 70.4373 42.905C70.1953 43.1984 70.0083 43.5284 69.8763 43.895Z" fill="#252831"/>
<path d="M50.1469 68.821C50.1469 69.217 50.0552 69.5654 49.8719 69.866C49.6959 70.1594 49.4539 70.3904 49.1459 70.559C48.8452 70.7204 48.5225 70.8377 48.1779 70.911C47.8405 70.9917 47.4812 71.032 47.0999 71.032C46.1099 71.032 45.1969 70.8707 44.3609 70.548V69.624C45.1382 69.9907 46.0292 70.1667 47.0339 70.152C48.4785 70.152 49.2009 69.679 49.2009 68.733C49.2009 67.809 48.5115 67.347 47.1329 67.347H45.5599V66.467H47.0339C47.5985 66.467 48.0495 66.3607 48.3869 66.148C48.7242 65.928 48.8929 65.6164 48.8929 65.213C48.8929 64.3697 48.2255 63.948 46.8909 63.948C46.0842 63.9407 45.2849 64.1204 44.4929 64.487V63.563C45.2482 63.233 46.0732 63.068 46.9679 63.068C47.8185 63.068 48.5079 63.244 49.0359 63.596C49.5639 63.9407 49.8279 64.443 49.8279 65.103C49.8279 65.5504 49.7105 65.928 49.4759 66.236C49.2412 66.5367 48.9369 66.7494 48.5629 66.874C48.9809 66.962 49.3475 67.1674 49.6629 67.49C49.9855 67.8127 50.1469 68.2564 50.1469 68.821Z" fill="#252831"/>
</svg>
