<svg width="97" height="85" viewBox="0 0 97 85" fill="none" xmlns="http://www.w3.org/2000/svg">
<g opacity="0.65">
<path d="M48.8 22.7L55.5 19.6L58.8 21V30.5L50.9 34.2V34.3V42.7L50.1 43.1V43.8L42.8 47.4L39.5 45.6V27.7L49.5 23L48.8 22.7Z" fill="#53667F" fill-opacity="0.6"/>
<path d="M50.8999 52.1L54.1999 53.9" stroke="#53667F" stroke-linecap="round" stroke-linejoin="round"/>
<path d="M61.4997 50.2999L54.1997 53.8999" stroke="#53667F" stroke-linecap="round" stroke-linejoin="round"/>
<path d="M70.1 45.4L61.5 49.7" stroke="#53667F" stroke-linecap="round" stroke-linejoin="round"/>
<path d="M50.8999 34.2L54.1999 36" stroke="#53667F" stroke-linecap="round" stroke-linejoin="round"/>
<path d="M61.4997 32.4L54.1997 36" stroke="#53667F" stroke-linecap="round" stroke-linejoin="round"/>
<path d="M60.7998 32.1L61.4998 32.4" stroke="#53667F" stroke-linecap="round" stroke-linejoin="round"/>
<path d="M70.0998 27.5L60.7998 32.1" stroke="#53667F" stroke-linecap="round" stroke-linejoin="round"/>
<path d="M66.8999 26.1L70.0999 27.5" stroke="#53667F" stroke-linecap="round" stroke-linejoin="round"/>
<path d="M60.1997 29.2L66.8997 26.1" stroke="#53667F" stroke-linecap="round" stroke-linejoin="round"/>
<path d="M60.7997 29.6L60.1997 29.2" stroke="#53667F" stroke-linecap="round" stroke-linejoin="round"/>
<path d="M50.8999 34.2L60.7999 29.6" stroke="#53667F" stroke-linecap="round" stroke-linejoin="round"/>
<path d="M54.1997 53.9V36.1" stroke="#53667F" stroke-linecap="round" stroke-linejoin="round"/>
<path d="M50.8999 52.0999V34.2999" stroke="#53667F" stroke-linecap="round" stroke-linejoin="round"/>
<path d="M70.1001 45.4V27.5" stroke="#53667F" stroke-linecap="round" stroke-linejoin="round"/>
<path d="M60.1997 29.2V29.9" stroke="#53667F" stroke-linecap="round" stroke-linejoin="round"/>
<path d="M61.7998 40.9L77.7998 32.9L80.7998 34.4V52.4L65.2998 60.9L61.7998 58.9V40.9Z" fill="#E7E7E8"/>
<path d="M61.7998 58.9L65.0998 60.7" stroke="#53667F" stroke-linecap="round" stroke-linejoin="round"/>
<path d="M72.3996 57.1L65.0996 60.7" stroke="#53667F" stroke-linecap="round" stroke-linejoin="round"/>
<path d="M80.9999 52.2001L72.3999 56.5001" stroke="#53667F" stroke-linecap="round" stroke-linejoin="round"/>
<path d="M61.7998 41L65.0998 42.8" stroke="#53667F" stroke-linecap="round" stroke-linejoin="round"/>
<path d="M72.3996 39.2001L65.0996 42.8001" stroke="#53667F" stroke-linecap="round" stroke-linejoin="round"/>
<path d="M71.6997 38.9L72.3997 39.2" stroke="#53667F" stroke-linecap="round" stroke-linejoin="round"/>
<path d="M80.9997 34.3L71.6997 38.9" stroke="#53667F" stroke-linecap="round" stroke-linejoin="round"/>
<path d="M77.7998 32.9L80.9998 34.3" stroke="#53667F" stroke-linecap="round" stroke-linejoin="round"/>
<path d="M71.0996 36L77.7996 32.9" stroke="#53667F" stroke-linecap="round" stroke-linejoin="round"/>
<path d="M71.6996 36.4L71.0996 36" stroke="#53667F" stroke-linecap="round" stroke-linejoin="round"/>
<path d="M61.7998 41L71.6998 36.4" stroke="#53667F" stroke-linecap="round" stroke-linejoin="round"/>
<path d="M65.0996 60.7V42.9" stroke="#53667F" stroke-linecap="round" stroke-linejoin="round"/>
<path d="M61.7998 58.9V41.1" stroke="#53667F" stroke-linecap="round" stroke-linejoin="round"/>
<path d="M81 52.2V34.3" stroke="#53667F" stroke-linecap="round" stroke-linejoin="round"/>
<path d="M71.0996 36V36.7" stroke="#53667F" stroke-linecap="round" stroke-linejoin="round"/>
<path d="M39.5 45.6L42.8 47.4" stroke="#53667F" stroke-linecap="round" stroke-linejoin="round"/>
<path d="M50.0998 43.7999L42.7998 47.3999" stroke="#53667F" stroke-linecap="round" stroke-linejoin="round"/>
<path d="M50.9001 42.7L50.1001 43.1" stroke="#53667F" stroke-linecap="round" stroke-linejoin="round"/>
<path d="M39.5 27.7L42.8 29.5" stroke="#53667F" stroke-linecap="round" stroke-linejoin="round"/>
<path d="M50.0998 25.9L42.7998 29.5" stroke="#53667F" stroke-linecap="round" stroke-linejoin="round"/>
<path d="M49.5 25.6L50.1 25.9" stroke="#53667F" stroke-linecap="round" stroke-linejoin="round"/>
<path d="M58.8 21L49.5 25.6" stroke="#53667F" stroke-linecap="round" stroke-linejoin="round"/>
<path d="M55.5 19.6L58.8 21" stroke="#53667F" stroke-linecap="round" stroke-linejoin="round"/>
<path d="M48.7998 22.7L55.4998 19.6" stroke="#53667F" stroke-linecap="round" stroke-linejoin="round"/>
<path d="M49.4998 23L48.7998 22.7" stroke="#53667F" stroke-linecap="round" stroke-linejoin="round"/>
<path d="M39.5 27.7L49.5 23" stroke="#53667F" stroke-linecap="round" stroke-linejoin="round"/>
<path d="M42.7998 47.4V29.5" stroke="#53667F" stroke-linecap="round" stroke-linejoin="round"/>
<path d="M39.5 45.6V27.7" stroke="#53667F" stroke-linecap="round" stroke-linejoin="round"/>
<path d="M58.7998 30.5V21" stroke="#53667F" stroke-linecap="round" stroke-linejoin="round"/>
<path d="M48.7998 22.7V23.3" stroke="#53667F" stroke-linecap="round" stroke-linejoin="round"/>
<path d="M24.7998 36H38.6998V35.6H39.4998" stroke="#53667F" stroke-linecap="round" stroke-linejoin="round"/>
<path d="M26.0998 16.4L24.7998 18.2H38.6998V17.7H47.5998L46.2998 16H34.8998L34.5998 16.4H26.0998Z" stroke="#53667F" stroke-linecap="round" stroke-linejoin="round"/>
<path d="M24.7998 36V18.2" stroke="#53667F" stroke-linecap="round" stroke-linejoin="round"/>
<path d="M47.5996 23.9V17.7" stroke="#53667F" stroke-linecap="round" stroke-linejoin="round"/>
</g>
<path d="M13.3344 52.5767L13.4758 52.0377C13.7215 52.1145 13.9359 52.1605 14.1189 52.1756C14.3038 52.1979 14.4771 52.1825 14.6386 52.1291C14.8001 52.0757 14.964 51.9867 15.1305 51.8619L15.5494 51.561L15.3974 51.7872L15.9731 47.3621L16.5795 47.7198L16.0346 51.4942L15.8554 51.3886L18.8811 49.0771L19.4668 49.4225L15.6574 52.2284C15.4354 52.3947 15.226 52.5189 15.029 52.6009C14.8294 52.6874 14.6382 52.7387 14.4553 52.7548C14.2744 52.7781 14.0919 52.7726 13.9078 52.7383C13.7237 52.704 13.5325 52.6502 13.3344 52.5767ZM17.5181 53.0378L17.5674 52.4818C17.7715 52.5031 17.9576 52.4921 18.1255 52.4487C18.3008 52.4035 18.4694 52.3171 18.6312 52.1897C18.7958 52.0576 18.965 51.8757 19.1389 51.6439C19.3154 51.4075 19.508 51.1124 19.7166 50.7587L20.2368 49.8766L22.7313 51.3477L20.6913 54.807L20.14 54.4819L21.92 51.4636L20.4935 50.6224L20.2213 51.0841C19.9016 51.6262 19.5997 52.0488 19.3157 52.3519C19.0363 52.6577 18.7507 52.8638 18.4588 52.9703C18.1742 53.0749 17.8606 53.0974 17.5181 53.0378ZM21.5383 55.3065L21.9528 54.6036L22.6557 55.0181L22.2411 55.721L21.5383 55.3065ZM24.7996 57.2298L27.6646 52.3717L31.7303 54.7694L28.8653 59.6275L28.2933 59.2902L30.8739 54.9144L27.9383 53.1832L25.3578 57.559L24.7996 57.2298ZM28.8431 61.7227L28.9844 61.1838C29.2302 61.2606 29.4445 61.3065 29.6276 61.3216C29.8125 61.344 29.9857 61.3285 30.1472 61.2751C30.3087 61.2217 30.4727 61.1327 30.6391 61.0079L31.0581 60.707L30.9061 60.9332L31.4818 56.5082L32.0882 56.8658L31.5433 60.6402L31.3641 60.5346L34.3897 58.2231L34.9755 58.5685L31.166 61.3744C30.9441 61.5407 30.7347 61.6649 30.5377 61.7469C30.3381 61.8334 30.1468 61.8847 29.964 61.9008C29.7831 61.9241 29.6006 61.9186 29.4165 61.8843C29.2323 61.8501 29.0412 61.7962 28.8431 61.7227ZM33.4661 62.3408L35.5062 58.8815L36.0368 59.1944L34.2568 62.2127L35.7246 63.0783L37.5046 60.06L38.0283 60.3689L36.2483 63.3871L37.7161 64.2527L39.496 61.2345L40.0335 61.5514L37.9935 65.0107L33.4661 62.3408ZM38.9609 65.5812L41.0009 62.1219L41.5591 62.4511L40.7016 63.9051L41.3562 64.2912L43.3576 63.5118L43.9709 63.8735L41.6741 64.7758L41.6241 64.5141C41.7492 64.6065 41.8451 64.7064 41.9118 64.8138C41.9784 64.9212 42.0256 65.0512 42.0533 65.2038C42.0856 65.359 42.1017 65.5574 42.1017 65.7989L42.1031 67.4343L41.5036 67.0808L41.5036 65.6319C41.5041 65.4526 41.4879 65.3068 41.455 65.1946C41.4267 65.085 41.3748 64.9894 41.2992 64.9076C41.2281 64.8286 41.126 64.7498 40.9928 64.6712L40.4415 64.3461L39.519 65.9104L38.9609 65.5812ZM42.531 67.6866L44.571 64.2274L45.0809 64.5281L43.3457 67.4705L43.1596 67.3608L47.1 65.7188L47.5686 65.9951L45.5285 69.4544L45.0255 69.1577L46.7648 66.2084L46.9509 66.3181L43.0064 67.967L42.531 67.6866ZM46.4914 70.0222L48.5314 66.563L49.0896 66.8921L48.2362 68.3392L50.1381 69.4608L50.9915 68.0137L51.5497 68.3429L49.5096 71.8022L48.9515 71.473L49.8739 69.9088L47.972 68.7871L47.0495 70.3514L46.4914 70.0222ZM51.7791 73.2242C51.4713 73.0427 51.2446 72.813 51.0989 72.5351C50.9559 72.2526 50.8986 71.9402 50.9271 71.5979C50.9602 71.2583 51.0865 70.9025 51.3059 70.5304C51.5281 70.1537 51.7798 69.8686 52.0609 69.6753C52.3467 69.4848 52.6464 69.386 52.9601 69.379C53.2738 69.3721 53.5845 69.4594 53.8923 69.6409C54.2047 69.8251 54.4261 70.064 54.5563 70.3575C54.6939 70.6492 54.7196 70.9522 54.6332 71.2666L54.5505 71.2178L55.1099 70.4425L55.6474 70.7595C55.5551 70.8846 55.4614 71.012 55.3663 71.1417C55.2785 71.2695 55.1967 71.3977 55.1209 71.5263L53.5522 74.1862L52.9941 73.8571L53.4736 73.0439L53.5494 73.0886C53.3161 73.3163 53.0385 73.4406 52.7167 73.4613C52.3949 73.482 52.0823 73.403 51.7791 73.2242ZM52.1576 72.8344C52.4884 73.0295 52.8166 73.0713 53.1423 72.96C53.4707 72.8441 53.7636 72.5679 54.021 72.1315C54.2811 71.6905 54.381 71.3005 54.3208 70.9616C54.2633 70.6182 54.0692 70.3489 53.7384 70.1538C53.4123 69.9615 53.0827 69.9219 52.7497 70.0351C52.424 70.1464 52.1311 70.4226 51.871 70.8636C51.6136 71.3 51.5137 71.69 51.5712 72.0335C51.636 72.3751 51.8314 72.642 52.1576 72.8344Z" fill="#8B98A8"/>
</svg>
