<svg width="232" height="14" viewBox="0 0 232 14" fill="none" xmlns="http://www.w3.org/2000/svg">
<path d="M0 0C0 1.1115 0 9.9469 0 13.3664H3.10827V3.10796H7.78838V0H0Z" fill="white" fill-opacity="0.5"/>
<path d="M228.773 0H220.985C220.985 1.1115 220.985 9.9469 220.985 13.3664H224.093V3.10796H228.271V13.3664H231.379V0C230.416 0 228.773 0 228.773 0Z" fill="white" fill-opacity="0.5"/>
<path d="M173.2 0H165.411C165.411 1.1115 165.411 9.9469 165.411 13.3664H168.519V3.10796H172.697V13.3664H175.805V0C174.842 0 173.2 0 173.2 0Z" fill="white" fill-opacity="0.5"/>
<path d="M60.1333 0H54.2637V3.10796H60.1333C60.9192 3.10796 61.5565 3.74513 61.5565 4.53097C61.5565 5.31681 60.9192 5.95398 60.1333 5.95398H54.2637V13.3664H57.372V9.06194H60.1333C62.6327 9.06194 64.6647 7.03008 64.6647 4.53097C64.6647 2.03185 62.6327 0 60.1333 0Z" fill="white" fill-opacity="0.5"/>
<path d="M111.771 13.3664H115.247C115.601 12.6584 121.626 0.608853 121.917 0.0212424H118.44C117.315 2.27965 116.189 4.5239 115.063 6.77523C113.923 4.51682 112.776 2.25841 111.636 0.00708008H108.153C108.153 0.00708008 112.925 9.43009 113.335 10.2372C112.811 11.2779 112.295 12.3257 111.771 13.3664Z" fill="white" fill-opacity="0.5"/>
</svg>
