<svg width="10" height="11" viewBox="0 0 10 11" fill="none" xmlns="http://www.w3.org/2000/svg">
  <path d="M8.53546 1.33435C6.58288 -0.444782 3.41712 -0.444782 1.46454 1.33435C1.00095 1.75388 0.632572 2.25502 0.381066 2.80831C0.129561 3.36161 0 3.95589 0 4.55623C0 5.15657 0.129561 5.75085 0.381066 6.30415C0.632572 6.85744 1.00095 7.35858 1.46454 7.77812L4.99969 11L8.53546 7.77812C8.99905 7.35858 9.36743 6.85744 9.61893 6.30415C9.87044 5.75085 10 5.15657 10 4.55623C10 3.95589 9.87044 3.36161 9.61893 2.80831C9.36743 2.25502 8.99905 1.75388 8.53546 1.33435ZM4.99969 6.07888C4.58217 6.07888 4.19028 5.92835 3.89464 5.65509C3.60197 5.38341 3.43761 5.01529 3.43761 4.63149C3.43761 4.2477 3.60197 3.87958 3.89464 3.6079C4.18965 3.33464 4.58217 3.18411 4.99969 3.18411C5.41721 3.18411 5.80972 3.33464 6.10473 3.6079C6.3974 3.87958 6.56177 4.2477 6.56177 4.63149C6.56177 5.01529 6.3974 5.38341 6.10473 5.65509C5.80972 5.92835 5.41721 6.07888 4.99969 6.07888Z" fill="white" />
</svg>