<svg width="12" height="15" viewBox="0 0 12 15" fill="none" xmlns="http://www.w3.org/2000/svg">
<path fill-rule="evenodd" clip-rule="evenodd" d="M0.779915 3.67438C0.214844 4.22313 0.214844 5.1075 0.214844 6.875V8.125C0.214844 9.8925 0.214844 10.7769 0.779915 11.3256C1.34434 11.875 2.25399 11.875 4.07199 11.875H7.92913C9.74713 11.875 10.6568 11.875 11.2212 11.3256C11.7863 10.7769 11.7863 9.8925 11.7863 8.125V6.875C11.7863 5.1075 11.7863 4.22313 11.2212 3.67438C10.6568 3.125 9.74713 3.125 7.92913 3.125H4.07199C2.25399 3.125 1.34434 3.125 0.779915 3.67438ZM2.5002 5.105C2.35835 5.013 2.18472 4.97956 2.0175 5.01203C1.85028 5.04449 1.70318 5.14021 1.60856 5.27812C1.51393 5.41604 1.47953 5.58485 1.51293 5.74742C1.54632 5.90999 1.64478 6.053 1.78663 6.145L5.28763 8.41375C5.49878 8.55053 5.74683 8.62352 6.00056 8.62352C6.25428 8.62352 6.50234 8.55053 6.71349 8.41375L10.2145 6.145C10.3563 6.053 10.4548 5.90999 10.4882 5.74742C10.5216 5.58485 10.4872 5.41604 10.3926 5.27812C10.2979 5.14021 10.1508 5.04449 9.98362 5.01203C9.8164 4.97956 9.64277 5.013 9.50091 5.105L6.00056 7.37375L2.5002 5.105Z" fill="white"/>
</svg>
