<svg width="11" height="12" viewBox="0 0 11 12" fill="none" xmlns="http://www.w3.org/2000/svg">
<path d="M1.22222 4.625L2.13889 1.53125H8.86111L9.77778 4.625M8.86111 8.0625C8.618 8.0625 8.38484 7.95385 8.21293 7.76045C8.04102 7.56706 7.94444 7.30475 7.94444 7.03125C7.94444 6.75775 8.04102 6.49544 8.21293 6.30205C8.38484 6.10865 8.618 6 8.86111 6C9.10423 6 9.33738 6.10865 9.50929 6.30205C9.6812 6.49544 9.77778 6.75775 9.77778 7.03125C9.77778 7.30475 9.6812 7.56706 9.50929 7.76045C9.33738 7.95385 9.10423 8.0625 8.86111 8.0625ZM2.13889 8.0625C1.89577 8.0625 1.66262 7.95385 1.49071 7.76045C1.3188 7.56706 1.22222 7.30475 1.22222 7.03125C1.22222 6.75775 1.3188 6.49544 1.49071 6.30205C1.66262 6.10865 1.89577 6 2.13889 6C2.382 6 2.61516 6.10865 2.78707 6.30205C2.95898 6.49544 3.05556 6.75775 3.05556 7.03125C3.05556 7.30475 2.95898 7.56706 2.78707 7.76045C2.61516 7.95385 2.382 8.0625 2.13889 8.0625ZM9.72889 1.1875C9.60667 0.78875 9.26444 0.5 8.86111 0.5H2.13889C1.73556 0.5 1.39333 0.78875 1.27111 1.1875L0 5.3125V10.8125C0 10.9948 0.0643847 11.1697 0.17899 11.2986C0.293596 11.4276 0.449034 11.5 0.611111 11.5H1.22222C1.3843 11.5 1.53974 11.4276 1.65434 11.2986C1.76895 11.1697 1.83333 10.9948 1.83333 10.8125V10.125H9.16667V10.8125C9.16667 10.9948 9.23105 11.1697 9.34566 11.2986C9.46026 11.4276 9.6157 11.5 9.77778 11.5H10.3889C10.551 11.5 10.7064 11.4276 10.821 11.2986C10.9356 11.1697 11 10.9948 11 10.8125V5.3125L9.72889 1.1875Z" fill="white"/>
</svg>
