<svg width="20" height="16" viewBox="0 0 20 16" fill="inherit" stroke="inherit" xmlns="http://www.w3.org/2000/svg">
  <path d="M10.0043 15.25V15.2499L9.9957 15.25C9.96844 15.2502 9.94158 15.245 9.9167 15.2349C9.89221 15.225 9.87032 15.2106 9.8521 15.1929C9.85183 15.1926 9.85157 15.1924 9.85131 15.1921L2.47573 7.87448C2.47535 7.8741 2.47497 7.87372 2.47459 7.87334C1.68926 7.08644 1.25 6.02583 1.25 4.92204C1.25 3.81853 1.68903 2.75819 2.47398 1.97135C3.26574 1.18996 4.33915 0.75 5.45961 0.75C6.58074 0.75 7.65477 1.19049 8.44666 1.97276C8.44677 1.97287 8.44688 1.97298 8.447 1.9731L9.47211 2.98885H10.5279L11.553 1.9731C11.5531 1.97297 11.5533 1.97285 11.5534 1.97272C12.3453 1.19048 13.4193 0.75 14.5404 0.75C15.6609 0.75 16.7343 1.18996 17.526 1.97135C18.311 2.75819 18.75 3.81853 18.75 4.92204C18.75 6.02587 18.3107 7.08652 17.5253 7.87343C17.525 7.87378 17.5246 7.87413 17.5243 7.87448L10.1487 15.1921C10.1484 15.1924 10.1482 15.1926 10.1479 15.1929C10.1297 15.2106 10.1078 15.225 10.0833 15.2349C10.0584 15.245 10.0316 15.2502 10.0043 15.25Z" fill="inherit" stroke="inherit" stroke-opacity="0.5" stroke-width="1.5" stroke-linejoin="bevel" />
</svg>