<svg width="18" height="18" viewBox="0 0 18 18" fill="inherit" xmlns="http://www.w3.org/2000/svg">
<path d="M4.1 3C3.82386 3 3.6 3.22386 3.6 3.5V14.74C3.6 15.0161 3.82386 15.24 4.1 15.24H5.8C6.07614 15.24 6.3 15.0161 6.3 14.74V9.99429H11.7V14.74C11.7 15.0161 11.9239 15.24 12.2 15.24H13.9C14.1761 15.24 14.4 15.0161 14.4 14.74V3.5C14.4 3.22386 14.1761 3 13.9 3H12.2C11.9239 3 11.7 3.22386 11.7 3.5V8.24571H6.3V3.5C6.3 3.22386 6.07614 3 5.8 3H4.1ZM0.9 11.7429C0.9 11.9747 0.994821 12.1971 1.1636 12.3611C1.33239 12.525 1.56131 12.6171 1.8 12.6171H2.7V5.62286H1.8C1.56131 5.62286 1.33239 5.71497 1.1636 5.87893C0.994821 6.04289 0.9 6.26527 0.9 6.49714V8.24571H0V9.99429H0.9V11.7429ZM17.1 6.49714C17.1 6.26527 17.0052 6.04289 16.8364 5.87893C16.6676 5.71497 16.4387 5.62286 16.2 5.62286H15.3V12.6171H16.2C16.4387 12.6171 16.6676 12.525 16.8364 12.3611C17.0052 12.1971 17.1 11.9747 17.1 11.7429V9.99429H18V8.24571H17.1V6.49714Z" fill="inherit"/>
</svg>
