<svg width="18" height="18" viewBox="0 0 18 18" fill="inherit" xmlns="http://www.w3.org/2000/svg">
<path fill-rule="evenodd" clip-rule="evenodd" d="M7.00002 6.16667C7.00002 5.50363 7.26341 4.86774 7.73224 4.3989C8.20108 3.93006 8.83696 3.66667 9.5 3.66667C10.163 3.66667 10.7989 3.93006 11.2678 4.3989C11.7366 4.86774 12 5.50363 12 6.16667H7.00002ZM5.33336 6.16667C5.33336 5.0616 5.77234 4.00179 6.55374 3.22039C7.33514 2.43899 8.39494 2 9.5 2C10.6051 2 11.6649 2.43899 12.4463 3.22039C13.2277 4.00179 13.6666 5.0616 13.6666 6.16667H16.1666C16.2824 6.16666 16.3969 6.19077 16.5028 6.23747C16.6087 6.28416 16.7038 6.35241 16.7819 6.43787C16.8599 6.52333 16.9194 6.62412 16.9563 6.73381C16.9933 6.84351 17.007 6.95971 16.9966 7.075L16.3008 14.7267C16.2442 15.3478 15.9576 15.9254 15.497 16.346C15.0365 16.7666 14.4353 16.9999 13.8116 17H5.18836C4.56466 16.9999 3.96353 16.7666 3.50299 16.346C3.04245 15.9254 2.75576 15.3478 2.69921 14.7267L2.00338 7.075C1.99296 6.95971 2.00668 6.84351 2.04366 6.73381C2.08063 6.62412 2.14006 6.52333 2.21815 6.43787C2.29623 6.35241 2.39127 6.28416 2.4972 6.23747C2.60312 6.19077 2.71762 6.16666 2.83338 6.16667H5.33336Z" fill="inherit"/>
</svg>
