<svg width="18" height="18" viewBox="0 0 18 18" fill="inherit" xmlns="http://www.w3.org/2000/svg">
<path d="M14.4922 5.85714C14.4922 6.06924 14.478 6.2781 14.4505 6.48371C15.5419 7.07963 16.3634 8.05209 16.7525 9.20867C17.1416 10.3653 17.0699 11.6217 16.5517 12.7294C16.0336 13.8371 15.1065 14.7153 13.9542 15.1904C12.8018 15.6654 11.5079 15.7026 10.3287 15.2946V18H8.66332V15.0857C7.70339 15.5625 6.60125 15.6948 5.55087 15.4593C4.50049 15.2239 3.56919 14.6358 2.92089 13.7986C2.27258 12.9613 1.94882 11.9286 2.00658 10.8822C2.06435 9.83574 2.49993 8.84264 3.23667 8.07767C3.5622 8.94365 4.07405 9.73214 4.73801 10.3905L5.9271 9.25714C5.01118 8.34959 4.49863 7.12857 4.49986 5.85714C4.49986 4.56895 5.02624 3.33352 5.9632 2.42262C6.90016 1.51173 8.17095 1 9.49601 1C10.8211 1 12.0919 1.51173 13.0288 2.42262C13.9658 3.33352 14.4922 4.56895 14.4922 5.85714Z" fill="inherit"/>
</svg>
