<svg width="9" height="9" viewBox="0 0 9 9" fill="none" xmlns="http://www.w3.org/2000/svg">
  <g clip-path="url(#clip0_1008_19738)">
    <path fill-rule="evenodd" clip-rule="evenodd" d="M2.21289 3.3501C2.21289 2.80309 2.43019 2.27848 2.81698 1.89169C3.20378 1.5049 3.72838 1.2876 4.27539 1.2876C4.8224 1.2876 5.347 1.5049 5.7338 1.89169C6.12059 2.27848 6.33789 2.80309 6.33789 3.3501H6.68164C6.86398 3.3501 7.03885 3.42253 7.16778 3.55146C7.29671 3.68039 7.36914 3.85526 7.36914 4.0376V7.4751C7.36914 7.65743 7.29671 7.8323 7.16778 7.96123C7.03885 8.09016 6.86398 8.1626 6.68164 8.1626H1.86914C1.6868 8.1626 1.51194 8.09016 1.383 7.96123C1.25407 7.8323 1.18164 7.65743 1.18164 7.4751V4.0376C1.18164 3.85526 1.25407 3.68039 1.383 3.55146C1.51194 3.42253 1.6868 3.3501 1.86914 3.3501H2.21289ZM4.27539 1.9751C4.64006 1.9751 4.9898 2.11996 5.24766 2.37783C5.50553 2.63569 5.65039 2.98542 5.65039 3.3501H2.90039C2.90039 2.98542 3.04526 2.63569 3.30312 2.37783C3.56098 2.11996 3.91072 1.9751 4.27539 1.9751ZM4.96289 5.4126C4.96289 5.53328 4.93112 5.65183 4.87078 5.75634C4.81044 5.86085 4.72365 5.94763 4.61914 6.00797V6.44385C4.61914 6.53502 4.58292 6.62245 4.51846 6.68692C4.45399 6.75138 4.36656 6.7876 4.27539 6.7876C4.18422 6.7876 4.09679 6.75138 4.03232 6.68692C3.96786 6.62245 3.93164 6.53502 3.93164 6.44385V6.00797C3.80058 5.9323 3.69816 5.81549 3.64025 5.67568C3.58234 5.53586 3.57218 5.38084 3.61135 5.23466C3.65052 5.08848 3.73682 4.95931 3.85689 4.86718C3.97695 4.77505 4.12405 4.7251 4.27539 4.7251C4.45773 4.7251 4.6326 4.79753 4.76153 4.92646C4.89046 5.05539 4.96289 5.23026 4.96289 5.4126Z" fill="#53667F" />
  </g>
  <defs>
    <clipPath id="clip0_1008_19738">
      <rect width="8.25" height="8.25" fill="white" transform="translate(0.150391 0.600098)" />
    </clipPath>
  </defs>
</svg>