<svg width="19" height="16" viewBox="0 0 19 16" fill="none" xmlns="http://www.w3.org/2000/svg">
<path d="M9.5043 15.25V15.2499L9.4957 15.25C9.46844 15.2502 9.44158 15.245 9.4167 15.2349C9.39221 15.225 9.37032 15.2106 9.3521 15.1929C9.35183 15.1926 9.35157 15.1924 9.35131 15.1921L1.97573 7.87448C1.97535 7.8741 1.97497 7.87372 1.97459 7.87334C1.18926 7.08644 0.75 6.02583 0.75 4.92204C0.75 3.81853 1.18903 2.75819 1.97398 1.97135C2.76574 1.18996 3.83915 0.75 4.95961 0.75C6.08074 0.75 7.15477 1.19049 7.94666 1.97276C7.94677 1.97287 7.94688 1.97298 7.947 1.9731L8.97211 2.98885H10.0279L11.053 1.9731C11.0531 1.97297 11.0533 1.97285 11.0534 1.97272C11.8453 1.19048 12.9193 0.75 14.0404 0.75C15.1609 0.75 16.2343 1.18996 17.026 1.97135C17.811 2.75819 18.25 3.81853 18.25 4.92204C18.25 6.02587 17.8107 7.08652 17.0253 7.87343C17.025 7.87378 17.0246 7.87413 17.0243 7.87448L9.64869 15.1921C9.64843 15.1924 9.64817 15.1926 9.6479 15.1929C9.62968 15.2106 9.60779 15.225 9.58329 15.2349C9.55842 15.245 9.53156 15.2502 9.5043 15.25Z" stroke="white" stroke-width="1.5" stroke-linejoin="bevel"/>
</svg>
