<svg width="20" height="20" viewBox="0 0 20 20" fill="none" xmlns="http://www.w3.org/2000/svg">
  <path d="M10.0043 17.25V17.2499L9.9957 17.25C9.96844 17.2502 9.94158 17.245 9.91671 17.2349C9.89218 17.225 9.87028 17.2106 9.85205 17.1929C9.8518 17.1926 9.85155 17.1924 9.85131 17.1921L2.47573 9.87448C2.47534 9.87409 2.47496 9.87371 2.47457 9.87332C1.68925 9.08642 1.25 8.02582 1.25 6.92204C1.25 5.81853 1.68903 4.75819 2.47398 3.97135C3.26574 3.18996 4.33915 2.75 5.45961 2.75C6.5807 2.75 7.6547 3.19046 8.44658 3.97268C8.44672 3.97282 8.44686 3.97296 8.447 3.9731L9.47211 4.98885L10.5279 4.98885L11.553 3.9731C11.5531 3.97297 11.5533 3.97285 11.5534 3.97272C12.3453 3.19048 13.4193 2.75 14.5404 2.75C15.6609 2.75 16.7343 3.18996 17.526 3.97135C18.311 4.75819 18.75 5.81853 18.75 6.92204C18.75 8.02578 18.3108 9.08635 17.5255 9.87323C17.5251 9.87365 17.5247 9.87407 17.5243 9.87448L10.1487 17.1921C10.1484 17.1924 10.1482 17.1926 10.1479 17.1929C10.1297 17.2106 10.1078 17.225 10.0833 17.2349C10.0584 17.245 10.0316 17.2502 10.0043 17.25Z" stroke="white" stroke-width="1.5" stroke-linejoin="bevel" />
</svg>