<svg width="15" height="15" viewBox="0 0 15 15" fill="none" xmlns="http://www.w3.org/2000/svg">
<path d="M7.5 12.2133L2.52066 7.24935C2.52027 7.24896 2.51988 7.24857 2.51949 7.24818C2.02613 6.75122 1.75 6.08131 1.75 5.3839C1.75 4.68677 2.02592 4.01711 2.51892 3.52021C3.0163 3.02732 3.6902 2.75 4.39342 2.75C5.09729 2.75 5.77179 3.02784 6.2693 3.52158C6.26943 3.52171 6.26955 3.52183 6.26968 3.52196L6.97083 4.22005H8.02917L8.73032 3.52196C8.73045 3.52183 8.73057 3.52171 8.7307 3.52158C9.22821 3.02784 9.90271 2.75 10.6066 2.75C11.3098 2.75 11.9837 3.02733 12.4811 3.52022C12.9741 4.01712 13.25 4.68678 13.25 5.3839C13.25 6.08131 12.9739 6.75123 12.4805 7.24819C12.4801 7.24858 12.4797 7.24897 12.4793 7.24935L7.5 12.2133Z" stroke="white" stroke-width="1.5" stroke-linejoin="bevel"/>
</svg>
