<svg width="15" height="15" viewBox="0 0 15 15" fill="none" xmlns="http://www.w3.org/2000/svg">
<path d="M13.4928 5.37789L9.76619 5.37789M9.76619 5.37789L9.7645 1.97282M9.76619 5.37789L14 1M13.2122 12.4167C13.2122 12.4167 12.4051 13.2363 12.2074 13.4766C11.8852 13.8321 11.5056 14 11.008 14C10.9601 14 10.9091 14 10.8612 13.9967C9.91383 13.9342 9.03342 13.5523 8.37312 13.2265C6.56765 12.3245 4.98228 11.0441 3.66485 9.42125C2.57711 8.06837 1.84981 6.81752 1.36814 5.47451C1.07148 4.65488 0.963026 4.01629 1.01087 3.41391C1.04277 3.02878 1.18632 2.70949 1.45108 2.43628L2.53883 1.31381C2.69513 1.16239 2.861 1.0801 3.02369 1.0801C3.22465 1.0801 3.38733 1.20518 3.48941 1.31052C3.4926 1.31381 3.49579 1.3171 3.49898 1.32039C3.69356 1.50802 3.87858 1.70223 4.07316 1.90961C4.17205 2.01494 4.27412 2.12028 4.3762 2.2289L5.24704 3.12753C5.58516 3.47645 5.58516 3.79904 5.24704 4.14796C5.15453 4.24342 5.06521 4.33888 4.97271 4.43104C4.70476 4.71413 4.91525 4.49692 4.63773 4.75367C4.63135 4.76026 4.62497 4.76355 4.62178 4.77013C4.34745 5.05322 4.39848 5.32972 4.4559 5.51735C4.45909 5.52722 4.46228 5.5371 4.46547 5.54697C4.69195 6.11314 5.01094 6.6464 5.4958 7.28169L5.49899 7.28499C6.3794 8.40416 7.30766 9.27646 8.33161 9.94467C8.46239 10.0303 8.59637 10.0994 8.72396 10.1652C8.8388 10.2245 8.94725 10.2804 9.03976 10.3397C9.05252 10.3463 9.06528 10.3561 9.07804 10.3627C9.1865 10.4187 9.28857 10.445 9.39384 10.445C9.6586 10.445 9.82447 10.2738 9.8787 10.2179L10.504 9.57267C10.6124 9.46075 10.7847 9.32579 10.9856 9.32579C11.1834 9.32579 11.3461 9.45417 11.445 9.56609C11.4482 9.56938 11.4482 9.56938 11.4514 9.57267L13.209 11.3864C13.5375 11.7221 13.2122 12.4167 13.2122 12.4167Z" stroke="white" stroke-width="1.5" stroke-linejoin="round"/>
</svg>
