<svg width="18" height="18" viewBox="0 0 18 18" fill="none" xmlns="http://www.w3.org/2000/svg">
<path d="M16.3757 6.38817L11.7892 6.38817M11.7892 6.38817L11.7871 2.19732M11.7892 6.38817L17 1M16.0304 15.0513C16.0304 15.0513 15.0371 16.0601 14.7937 16.3558C14.3971 16.7934 13.9299 17 13.3175 17C13.2586 17 13.1958 17 13.1369 16.9959C11.9709 16.919 10.8873 16.449 10.0746 16.0479C7.85249 14.9379 5.90126 13.3619 4.27982 11.3646C2.94105 9.69953 2.04592 8.16003 1.4531 6.50709C1.08798 5.49831 0.954493 4.71236 1.01338 3.97097C1.05264 3.49696 1.22931 3.10399 1.55517 2.76773L2.89394 1.38623C3.08631 1.19987 3.29047 1.09858 3.49069 1.09858C3.73803 1.09858 3.93826 1.25253 4.06389 1.38218C4.06782 1.38623 4.07174 1.39028 4.07567 1.39433C4.31515 1.62526 4.54286 1.86428 4.78235 2.11952C4.90406 2.24916 5.02969 2.3788 5.15532 2.51249L6.22712 3.6185C6.64328 4.04794 6.64328 4.44497 6.22712 4.87441C6.11327 4.9919 6.00334 5.10939 5.88948 5.22282C5.5597 5.57124 5.81876 5.3039 5.4772 5.61991C5.46935 5.62801 5.4615 5.63206 5.45757 5.64016C5.11993 5.98858 5.18275 6.32889 5.25342 6.55981C5.25734 6.57196 5.26127 6.58412 5.2652 6.59627C5.54394 7.2931 5.93654 7.94941 6.5333 8.73132L6.53722 8.73537C7.6208 10.1128 8.76327 11.1864 10.0235 12.0088C10.1845 12.1142 10.3494 12.1992 10.5064 12.2803C10.6478 12.3532 10.7812 12.4221 10.8951 12.495C10.9108 12.5031 10.9265 12.5152 10.9422 12.5233C11.0757 12.5922 11.2013 12.6246 11.3309 12.6246C11.6567 12.6246 11.8609 12.414 11.9276 12.3451L12.6972 11.551C12.8307 11.4132 13.0427 11.2471 13.29 11.2471C13.5334 11.2471 13.7336 11.4051 13.8554 11.5429C13.8593 11.5469 13.8593 11.5469 13.8632 11.551L16.0264 13.7833C16.4308 14.1965 16.0304 15.0513 16.0304 15.0513Z" stroke="white" stroke-width="1.5" stroke-linejoin="round"/>
</svg>
