<svg width="24" height="24" viewBox="0 0 24 24" fill="none" xmlns="http://www.w3.org/2000/svg">
<path fill-rule="evenodd" clip-rule="evenodd" d="M12.0688 12.3942C10.4013 12.3874 8.80405 11.7369 7.62494 10.5842C6.44583 9.43145 5.78036 7.86997 5.77345 6.23982C5.77781 4.60096 6.43973 3.02921 7.61692 1.86239C8.79412 0.695577 10.3926 0.026868 12.0688 6.98753e-06C12.9032 -0.00122309 13.7296 0.159965 14.4997 0.474177C15.2697 0.788387 15.9681 1.24933 16.5541 1.83013C17.1401 2.41094 17.6019 3.09996 17.9126 3.85706C18.2234 4.61414 18.3768 5.42415 18.3641 6.23982C18.3747 7.05088 18.219 7.85582 17.9064 8.60716C17.5938 9.3585 17.1305 10.0411 16.5438 10.6146C15.9571 11.1882 15.2589 11.6411 14.4903 11.9468C13.7218 12.2524 12.8984 12.4045 12.0688 12.3942ZM12.0688 3.67553C11.7168 3.67531 11.3684 3.74439 11.0444 3.87857C10.7203 4.01273 10.4271 4.2093 10.1824 4.45654C9.93763 4.70381 9.74629 4.99667 9.61971 5.31773C9.49317 5.63875 9.43399 5.98142 9.44572 6.32531C9.44052 6.65954 9.50551 6.99124 9.63662 7.29995C9.76776 7.60866 9.96223 7.88778 10.2081 8.12009C10.4539 8.35243 10.7459 8.53299 11.0659 8.65066C11.3859 8.7683 11.7273 8.82052 12.0688 8.80414C12.4081 8.81209 12.7457 8.75401 13.0619 8.63333C13.3781 8.51262 13.6666 8.33171 13.9106 8.10107C14.1547 7.87043 14.3494 7.59468 14.4835 7.28985C14.6177 6.98499 14.6885 6.65711 14.6918 6.32531C14.7036 5.98142 14.6444 5.63875 14.5178 5.31773C14.3913 4.99667 14.1999 4.70381 13.9552 4.45654C13.7104 4.2093 13.4173 4.01273 13.0932 3.87857C12.7691 3.74439 12.4207 3.67531 12.0688 3.67553ZM14.6044 17.5228L18.1892 20.9419C18.3558 21.1046 18.4879 21.2978 18.578 21.5105C18.6682 21.7231 18.7146 21.9511 18.7146 22.1813C18.7146 22.4115 18.6682 22.6394 18.578 22.8521C18.4879 23.0648 18.3558 23.258 18.1892 23.4207C18.0341 23.6021 17.8402 23.7479 17.6211 23.848C17.4021 23.9481 17.1632 24 16.9214 24C16.6796 24 16.4408 23.9481 16.2217 23.848C16.0026 23.7479 15.8087 23.6021 15.6536 23.4207L12.0688 20.0016L8.57139 23.4207C8.40128 23.5907 8.19676 23.7241 7.97093 23.8123C7.74511 23.9007 7.50292 23.9419 7.25985 23.9336C6.77519 23.9159 6.31174 23.7347 5.94833 23.4207C5.78177 23.258 5.64965 23.0648 5.5595 22.8521C5.46936 22.6394 5.42296 22.4115 5.42296 22.1813C5.42296 21.9511 5.46936 21.7231 5.5595 21.5105C5.64965 21.2978 5.78177 21.1046 5.94833 20.9419L9.6206 17.5228C8.30861 17.1221 7.04732 16.5772 5.86089 15.8987C5.4557 15.639 5.16691 15.2382 5.05322 14.7777C4.93953 14.3172 5.00948 13.8317 5.24885 13.4199C5.38227 13.2129 5.55737 13.0347 5.76347 12.896C5.96958 12.7573 6.2024 12.661 6.44777 12.613C6.69313 12.5651 6.94592 12.5664 7.19074 12.6169C7.43557 12.6675 7.66732 12.7662 7.8719 12.907C9.15167 13.6617 10.6179 14.0605 12.1125 14.0605C13.6071 14.0605 15.0733 13.6617 16.3531 12.907C16.5577 12.7662 16.7894 12.6675 17.0342 12.6169C17.2791 12.5664 17.5318 12.5651 17.7772 12.613C18.0226 12.661 18.2554 12.7573 18.4615 12.896C18.6676 13.0347 18.8427 13.2129 18.9761 13.4199C19.224 13.8217 19.3077 14.3002 19.2105 14.7598C19.1132 15.2193 18.8422 15.626 18.4515 15.8987C17.2346 16.5776 15.9443 17.1223 14.6044 17.5228Z" fill="white" fill-opacity="0.75"/>
</svg>
