<svg width="24" height="24" viewBox="0 0 24 24" fill="none" xmlns="http://www.w3.org/2000/svg">
<path d="M23.747 7.59884C23.747 7.59884 23.5127 5.96638 22.7911 5.2429C21.8821 4.29681 20.8606 4.29681 20.3827 4.24116C17.0371 4 12.0047 4 12.0047 4H11.9953C11.9953 4 6.9629 4 3.59859 4.24116C3.13003 4.29681 2.10855 4.29681 1.19016 5.2429C0.477938 5.96638 0.243655 7.59884 0.243655 7.59884C0.243655 7.59884 0 9.52812 0 11.4481V13.2475C0 15.1675 0.243655 17.0875 0.243655 17.0875C0.243655 17.0875 0.477938 18.72 1.19953 19.4435C2.10855 20.3896 3.30808 20.3617 3.84225 20.4545C5.76337 20.64 11.9953 20.6957 11.9953 20.6957C11.9953 20.6957 17.0371 20.6864 20.392 20.4452C20.8606 20.3896 21.8821 20.3896 22.8005 19.4435C23.5221 18.72 23.7563 17.0875 23.7563 17.0875C23.7563 17.0875 24 15.1675 24 13.2475V11.4481C23.9906 9.52812 23.747 7.59884 23.747 7.59884ZM9.52128 15.4272V8.75826L16.0062 12.1067L9.52128 15.4272Z" fill="white" fill-opacity="0.75"/>
</svg>
