<svg width="297" height="34" viewBox="0 0 297 34" fill="none" xmlns="http://www.w3.org/2000/svg">
<path d="M15.6759 13.7133C18.0832 10.3221 24.5688 1.20354 25.4255 0H17.7929C13.9908 5.34513 10.0753 10.846 6.21655 16.2761V0H0V27.0655H6.17406L11.895 19.023C11.895 19.023 21.0782 31.1221 22.7279 33.2956H30.5305C25.5459 26.7257 20.6109 20.2336 15.6688 13.7204L15.6759 13.7133Z" fill="white"/>
<path d="M179.119 13.7274V0H172.903V33.2885H179.119V19.9504H194.073V13.7345H179.119V13.7274Z" fill="white"/>
<path d="M227.717 19.9504V13.7345H206.462V6.21593H227.717V0H200.246V19.9504H227.717Z" fill="white"/>
<path d="M200.246 33.2884H227.717V27.0725H200.246V33.2884Z" fill="white"/>
<path d="M92.5606 0V13.7274H77.5361V0H71.3196V33.2885H77.5361V19.9504H92.5606V33.2885H98.7772V0H92.5606Z" fill="white"/>
<path d="M257.01 0V13.7274H241.986V0H235.769V33.2885H241.986V19.9504H257.01V33.2885H263.227V0H257.01Z" fill="white"/>
<path d="M50.1851 0.0850027C39.6567 -0.955705 30.8841 7.81598 31.9249 18.3434C32.6967 26.131 38.9982 32.4319 46.7866 33.2036C57.3151 34.2443 66.0876 25.4726 65.0468 14.9452C64.2821 7.15757 57.9806 0.856684 50.1851 0.0850027ZM49.8453 26.9877C43.0198 27.8514 37.2847 22.1098 38.1415 15.285C38.7291 10.6337 42.4817 6.88146 47.1335 6.29385C53.959 5.43722 59.6941 11.1717 58.8373 17.9965C58.2497 22.6478 54.4971 26.4 49.8524 26.9877H49.8453Z" fill="white"/>
<path d="M105.638 0V6.21593H115.14V33.2885H121.357V6.21593H130.858V0H105.645H105.638Z" fill="white"/>
<path d="M271.312 0V6.21593H280.814V33.2885H287.031V6.21593H296.532V0H271.319H271.312Z" fill="white"/>
<path d="M158.614 0H158.607V0.0141593C153.693 7.83717 148.815 15.6106 143.936 23.3841V0H137.72V33.2885H145.062C145.062 33.2885 157.099 14.1097 158.607 11.7097V27.0655H164.823V0H158.614Z" fill="white"/>
</svg>
