<svg width="12" height="12" viewBox="0 0 12 12" fill="none" xmlns="http://www.w3.org/2000/svg">
<path d="M8.53546 1.45565C6.58288 -0.485217 3.41712 -0.485217 1.46454 1.45565C1.00095 1.91332 0.632572 2.46002 0.381066 3.06361C0.129561 3.66721 0 4.31552 0 4.97043C0 5.62535 0.129561 6.27366 0.381066 6.87725C0.632572 7.48085 1.00095 8.02755 1.46454 8.48522L4.99969 12L8.53546 8.48522C8.99905 8.02755 9.36743 7.48085 9.61894 6.87725C9.87044 6.27366 10 5.62535 10 4.97043C10 4.31552 9.87044 3.66721 9.61894 3.06361C9.36743 2.46002 8.99905 1.91332 8.53546 1.45565ZM4.99969 6.63151C4.58217 6.63151 4.19028 6.4673 3.89464 6.16919C3.60197 5.87281 3.43761 5.47123 3.43761 5.05254C3.43761 4.63385 3.60197 4.23227 3.89464 3.93589C4.18965 3.63778 4.58217 3.47357 4.99969 3.47357C5.41721 3.47357 5.80972 3.63778 6.10473 3.93589C6.3974 4.23227 6.56177 4.63385 6.56177 5.05254C6.56177 5.47123 6.3974 5.87281 6.10473 6.16919C5.80972 6.4673 5.41721 6.63151 4.99969 6.63151Z" fill="white"/>
</svg>
