<svg width="328" height="411" viewBox="0 0 328 411" fill="none" xmlns="http://www.w3.org/2000/svg">
<g clip-path="url(#clip0_3021_6726)">
<path d="M180.393 175.183L180.607 175.483L180.384 175.776C136.588 233.403 92.8401 290.97 49.0094 348.647C1.82706 410.733 -45.4518 472.947 -92.992 535.5H49.6744C65.0181 515.313 114.765 449.851 160.745 389.345C183.811 358.993 205.928 329.887 222.28 308.37L241.879 282.578L247.306 275.437L248.729 273.565L249.093 273.086L249.185 272.965L249.208 272.934L249.214 272.927C249.214 272.926 249.215 272.925 249.25 272.951C249.294 272.984 249.392 273.058 249.614 273.227L249.216 272.924L249.627 272.382L250.021 272.937L249.653 273.199C249.844 273.063 249.936 272.998 249.98 272.967C250.022 272.938 250.022 272.938 250.022 272.938L250.026 272.943L250.038 272.961L250.089 273.032L250.289 273.314L251.071 274.414L254.047 278.603C256.617 282.219 260.301 287.403 264.756 293.671C273.667 306.209 285.665 323.086 298.014 340.446C321.57 373.564 346.398 408.436 353.5 418.29V222.422C282.468 122.694 210.48 21.6289 140.576 -76.5H1.11392C14.617 -57.5531 84.7971 40.9742 137.32 114.712C154.395 138.685 169.605 160.037 180.393 175.183Z" stroke="white" stroke-opacity="0.25"/>
</g>
<defs>
<clipPath id="clip0_3021_6726">
<rect width="328" height="411" fill="white"/>
</clipPath>
</defs>
</svg>
