<svg width="18" height="18" viewBox="0 0 18 18" fill="inherit" xmlns="http://www.w3.org/2000/svg">
<path d="M15.6023 12.5C15.4318 13.683 14.45 14.6 13.25 14.6H12.2273V13.2H14.2727C14.225 12.304 14.45 10.428 13.9523 9.665C13.2909 8.23 11.4295 7.992 10.1341 7.635C9.5 7.6 8.81818 6.9 8.70909 6.2H6.77273C6.58182 6.2 6.43182 6.046 6.43182 5.85C6.43182 5.654 6.58182 5.5 6.77273 5.5H8.47727V4.8H6.77273C6.58182 4.8 6.43182 4.646 6.43182 4.45C6.43182 4.254 6.58182 4.1 6.77273 4.1H8.47727V2H2.70227V13.2H4.72727V14.6H2V16H13.25C15.2 16 16.8091 14.46 17 12.5H15.6023ZM10.8636 14.6H6.09091V13.2H10.8636V14.6Z" fill="inherit"/>
</svg>
