<svg width="20" height="20" viewBox="0 0 20 20" fill="none" xmlns="http://www.w3.org/2000/svg">
  <path d="M17.3757 7.38817L12.7892 7.38817M12.7892 7.38817L12.7871 3.19732M12.7892 7.38817L18 2M17.0304 16.0513C17.0304 16.0513 16.0371 17.0601 15.7937 17.3558C15.3971 17.7934 14.9299 18 14.3175 18C14.2586 18 14.1958 18 14.1369 17.9959C12.9709 17.919 11.8873 17.449 11.0746 17.0479C8.85249 15.9379 6.90126 14.3619 5.27982 12.3646C3.94105 10.6995 3.04592 9.16003 2.4531 7.50709C2.08798 6.49831 1.95449 5.71236 2.01338 4.97097C2.05264 4.49696 2.22931 4.10399 2.55517 3.76773L3.89394 2.38623C4.08631 2.19987 4.29047 2.09858 4.49069 2.09858C4.73803 2.09858 4.93826 2.25253 5.06389 2.38218C5.06782 2.38623 5.07174 2.39028 5.07567 2.39433C5.31515 2.62526 5.54286 2.86428 5.78235 3.11952C5.90406 3.24916 6.02969 3.3788 6.15532 3.51249L7.22712 4.6185C7.64328 5.04794 7.64328 5.44497 7.22712 5.87441C7.11327 5.9919 7.00334 6.10939 6.88948 6.22282C6.5597 6.57124 6.81876 6.3039 6.4772 6.61991C6.46935 6.62801 6.4615 6.63206 6.45757 6.64016C6.11993 6.98858 6.18275 7.32889 6.25342 7.55981C6.25734 7.57196 6.26127 7.58412 6.2652 7.59627C6.54394 8.2931 6.93654 8.94941 7.5333 9.73132L7.53722 9.73537C8.6208 11.1128 9.76327 12.1864 11.0235 13.0088C11.1845 13.1142 11.3494 13.1992 11.5064 13.2803C11.6478 13.3532 11.7812 13.4221 11.8951 13.495C11.9108 13.5031 11.9265 13.5152 11.9422 13.5233C12.0757 13.5922 12.2013 13.6246 12.3309 13.6246C12.6567 13.6246 12.8609 13.414 12.9276 13.3451L13.6972 12.551C13.8307 12.4132 14.0427 12.2471 14.29 12.2471C14.5334 12.2471 14.7336 12.4051 14.8554 12.5429C14.8593 12.5469 14.8593 12.5469 14.8632 12.551L17.0264 14.7833C17.4308 15.1965 17.0304 16.0513 17.0304 16.0513Z" stroke="white" stroke-width="1.5" stroke-linejoin="round" />
</svg>