<svg width="14" height="14" viewBox="0 0 14 14" fill="none" xmlns="http://www.w3.org/2000/svg">
  <g opacity="0.5">
    <path d="M7.00065 5.25C6.53652 5.25 6.0914 5.43437 5.76321 5.76256C5.43503 6.09075 5.25065 6.53587 5.25065 7C5.25065 7.46413 5.43503 7.90925 5.76321 8.23744C6.0914 8.56563 6.53652 8.75 7.00065 8.75C7.46478 8.75 7.9099 8.56563 8.23809 8.23744C8.56628 7.90925 8.75065 7.46413 8.75065 7C8.75065 6.53587 8.56628 6.09075 8.23809 5.76256C7.9099 5.43437 7.46478 5.25 7.00065 5.25ZM7.00065 9.91667C6.2271 9.91667 5.48524 9.60938 4.93826 9.06239C4.39127 8.51541 4.08398 7.77355 4.08398 7C4.08398 6.22645 4.39127 5.48459 4.93826 4.93761C5.48524 4.39062 6.2271 4.08333 7.00065 4.08333C7.7742 4.08333 8.51606 4.39062 9.06305 4.93761C9.61003 5.48459 9.91732 6.22645 9.91732 7C9.91732 7.77355 9.61003 8.51541 9.06305 9.06239C8.51606 9.60938 7.7742 9.91667 7.00065 9.91667ZM7.00065 2.625C4.08398 2.625 1.59315 4.43917 0.583984 7C1.59315 9.56083 4.08398 11.375 7.00065 11.375C9.91732 11.375 12.4082 9.56083 13.4173 7C12.4082 4.43917 9.91732 2.625 7.00065 2.625Z" fill="#252831" fill-opacity="0.5" />
  </g>
</svg>