<?xml version="1.0" encoding="utf-8"?><svg width="10" height="11" fill="none" xmlns="http://www.w3.org/2000/svg" viewBox="0 0 10 11"><path d="M8.535 1.334c-1.952-1.779-5.118-1.779-7.07 0C1 1.754.633 2.255.38 2.808A4.22 4.22 0 000 4.556c0 .6.13 1.195.381 1.748.252.553.62 1.055 1.084 1.474L5 11l3.535-3.222c.464-.42.832-.92 1.084-1.474A4.22 4.22 0 0010 4.556c0-.6-.13-1.194-.381-1.748a4.507 4.507 0 00-1.084-1.474zM5 6.08c-.418 0-.81-.15-1.105-.424a1.397 1.397 0 01-.457-1.024c0-.383.164-.751.457-1.023A1.617 1.617 0 015 3.184c.417 0 .81.15 1.105.424.292.272.457.64.457 1.023 0 .384-.165.752-.457 1.024A1.617 1.617 0 015 6.08z" fill="#fff"/></svg>