<?xml version="1.0" encoding="utf-8"?><svg width="40" height="40" fill="none" xmlns="http://www.w3.org/2000/svg" viewBox="0 0 40 40"><path d="M35.822 7.668c.946 1.2 1.734 2.517 2.404 3.91L20.02 24.785l-7.646-4.724v-5.654l7.606 4.686L35.822 7.668z" fill="#21A038"/><path d="M4.61 19.673c0-.271 0-.504.04-.775l-4.61-.232c0 .31-.04.658-.04.968 0 5.421 2.246 10.34 5.872 13.902l3.27-3.214c-2.797-2.71-4.531-6.467-4.531-10.65z" fill="url(#dpaint0_linear_3010_5241)"/><path d="M19.98 4.57c.276 0 .513 0 .789.038l.236-4.53c-.315 0-.67-.04-.985-.04a20.135 20.135 0 00-14.148 5.77l3.271 3.215A15.35 15.35 0 0119.98 4.57z" fill="url(#dpaint1_linear_3010_5241)"/><path d="M19.98 34.776c-.276 0-.512 0-.788-.04l-.236 4.532c.315 0 .67.038.985.038a20.135 20.135 0 0014.148-5.77l-3.271-3.214c-2.759 2.788-6.582 4.454-10.838 4.454z" fill="url(#dpaint2_linear_3010_5241)"/><path d="M28.65 7.203l3.902-2.827A20.238 20.238 0 0019.98 0v4.53c3.232.04 6.227 1.008 8.67 2.673z" fill="url(#dpaint3_linear_3010_5241)"/><path d="M40 19.673c0-1.2-.118-2.363-.315-3.524l-4.296 3.136v.388c0 4.453-1.97 8.442-5.084 11.191l3.114 3.37C37.439 30.67 40 25.442 40 19.672z" fill="#21A038"/><path d="M19.98 34.776A15.387 15.387 0 018.591 29.78l-3.428 3.06c3.665 3.988 8.946 6.466 14.817 6.466v-4.53z" fill="url(#dpaint4_linear_3010_5241)"/><path d="M9.695 8.48L6.58 5.113C2.522 8.713 0 13.902 0 19.672h4.61c0-4.414 1.971-8.442 5.085-11.191z" fill="url(#dpaint5_linear_3010_5241)"/><defs><linearGradient id="dpaint0_linear_3010_5241" x1="5.38" y1="32.985" x2=".879" y2="19.543" gradientUnits="userSpaceOnUse"><stop offset=".144" stop-color="#F2E913"/><stop offset=".304" stop-color="#E7E518"/><stop offset=".582" stop-color="#CADB26"/><stop offset=".891" stop-color="#A3CD39"/></linearGradient><linearGradient id="dpaint1_linear_3010_5241" x1="7.186" y1="5.298" x2="19.06" y2=".622" gradientUnits="userSpaceOnUse"><stop offset=".059" stop-color="#0FA8E0"/><stop offset=".538" stop-color="#0099F9"/><stop offset=".923" stop-color="#0291EB"/></linearGradient><linearGradient id="dpaint2_linear_3010_5241" x1="18.685" y1="35.453" x2="32.897" y2="32.134" gradientUnits="userSpaceOnUse"><stop offset=".123" stop-color="#A3CD39"/><stop offset=".285" stop-color="#86C339"/><stop offset=".869" stop-color="#21A038"/></linearGradient><linearGradient id="dpaint3_linear_3010_5241" x1="19.033" y1="2.886" x2="30.826" y2="6.646" gradientUnits="userSpaceOnUse"><stop offset=".057" stop-color="#0291EB"/><stop offset=".79" stop-color="#0C8ACB"/></linearGradient><linearGradient id="dpaint4_linear_3010_5241" x1="6.335" y1="33.557" x2="18.979" y2="38.439" gradientUnits="userSpaceOnUse"><stop offset=".132" stop-color="#F2E913"/><stop offset=".298" stop-color="#EBE716"/><stop offset=".531" stop-color="#D9E01F"/><stop offset=".802" stop-color="#BBD62D"/><stop offset=".983" stop-color="#A3CD39"/></linearGradient><linearGradient id="dpaint5_linear_3010_5241" x1="3.533" y1="20.22" x2="8.403" y2="7.128" gradientUnits="userSpaceOnUse"><stop offset=".07" stop-color="#A3CD39"/><stop offset=".26" stop-color="#81C55F"/><stop offset=".922" stop-color="#0FA8E0"/></linearGradient></defs></svg>