<?xml version="1.0" encoding="utf-8"?><svg width="40" height="41" fill="none" xmlns="http://www.w3.org/2000/svg" viewBox="0 0 40 41"><path d="M35.822 7.863c.946 1.23 1.734 2.58 2.404 4.01L20.02 25.416l-7.645-4.845v-5.798l7.606 4.805L35.822 7.863z" fill="#21A038"/><path d="M4.61 20.173c0-.278 0-.516.04-.794L.04 19.14c0 .317-.04.675-.04.992 0 5.56 2.246 10.603 5.872 14.257l3.27-3.297a15.32 15.32 0 01-4.531-10.92z" fill="url(#aipaint0_linear_3044_6382)"/><path d="M19.98 4.686c.276 0 .513 0 .789.04l.236-4.647c-.315 0-.67-.04-.985-.04-5.517 0-10.522 2.264-14.148 5.918l3.271 3.296A15.159 15.159 0 0119.98 4.686z" fill="url(#aipaint1_linear_3044_6382)"/><path d="M19.98 35.66c-.275 0-.512 0-.788-.04l-.236 4.647c.315 0 .67.04.985.04 5.517 0 10.522-2.264 14.148-5.918l-3.271-3.296c-2.759 2.86-6.581 4.567-10.837 4.567z" fill="url(#aipaint2_linear_3044_6382)"/><path d="M28.65 7.386l3.902-2.899C29.123 1.707 24.749 0 19.98 0v4.646c3.232.04 6.227 1.033 8.67 2.74z" fill="url(#aipaint3_linear_3044_6382)"/><path d="M40 20.173c0-1.23-.118-2.422-.315-3.614l-4.296 3.217v.397c0 4.567-1.97 8.657-5.083 11.477l3.113 3.454A20.184 20.184 0 0040 20.174z" fill="#21A038"/><path d="M19.98 35.66c-4.531 0-8.59-1.985-11.388-5.122l-3.429 3.137c3.665 4.09 8.946 6.631 14.818 6.631V35.66z" fill="url(#aipaint4_linear_3044_6382)"/><path d="M9.695 8.697L6.58 5.242A20.106 20.106 0 000 20.173h4.61c0-4.527 1.971-8.657 5.085-11.476z" fill="url(#aipaint5_linear_3044_6382)"/><defs><linearGradient id="aipaint0_linear_3044_6382" x1="5.38" y1="33.824" x2=".672" y2="20.111" gradientUnits="userSpaceOnUse"><stop offset=".144" stop-color="#F2E913"/><stop offset=".304" stop-color="#E7E518"/><stop offset=".582" stop-color="#CADB26"/><stop offset=".891" stop-color="#A3CD39"/></linearGradient><linearGradient id="aipaint1_linear_3044_6382" x1="7.186" y1="5.432" x2="19.138" y2=".843" gradientUnits="userSpaceOnUse"><stop offset=".059" stop-color="#0FA8E0"/><stop offset=".538" stop-color="#0099F9"/><stop offset=".923" stop-color="#0291EB"/></linearGradient><linearGradient id="aipaint2_linear_3044_6382" x1="18.685" y1="36.355" x2="32.934" y2="33.11" gradientUnits="userSpaceOnUse"><stop offset=".123" stop-color="#A3CD39"/><stop offset=".285" stop-color="#86C339"/><stop offset=".869" stop-color="#21A038"/></linearGradient><linearGradient id="aipaint3_linear_3044_6382" x1="19.033" y1="2.959" x2="30.88" y2="6.643" gradientUnits="userSpaceOnUse"><stop offset=".057" stop-color="#0291EB"/><stop offset=".79" stop-color="#0C8ACB"/></linearGradient><linearGradient id="aipaint4_linear_3044_6382" x1="6.335" y1="34.411" x2="19.06" y2="39.202" gradientUnits="userSpaceOnUse"><stop offset=".132" stop-color="#F2E913"/><stop offset=".298" stop-color="#EBE716"/><stop offset=".531" stop-color="#D9E01F"/><stop offset=".802" stop-color="#BBD62D"/><stop offset=".983" stop-color="#A3CD39"/></linearGradient><linearGradient id="aipaint5_linear_3044_6382" x1="3.533" y1="20.734" x2="8.623" y2="7.393" gradientUnits="userSpaceOnUse"><stop offset=".07" stop-color="#A3CD39"/><stop offset=".26" stop-color="#81C55F"/><stop offset=".922" stop-color="#0FA8E0"/></linearGradient></defs></svg>