<?xml version="1.0" encoding="utf-8"?><svg width="12" height="12" fill="none" xmlns="http://www.w3.org/2000/svg" viewBox="0 0 12 12"><g clip-path="url(#atclip0_3076_5949)"><path d="M12 9.477c0 .154-.028.354-.085.601a3.381 3.381 0 01-.18.584c-.118.284-.465.585-1.039.903-.534.29-1.062.435-1.585.435a3.38 3.38 0 01-.452-.03 3.495 3.495 0 01-.49-.106 7.333 7.333 0 01-.4-.124 33.61 33.61 0 01-.474-.175 18.566 18.566 0 00-.417-.153 7.71 7.71 0 01-1.492-.708c-.721-.448-1.471-1.062-2.25-1.84-.778-.779-1.392-1.529-1.84-2.25a7.72 7.72 0 01-.708-1.492c-.017-.051-.068-.19-.153-.417a33.581 33.581 0 01-.175-.473 7.306 7.306 0 01-.124-.401 3.502 3.502 0 01-.106-.49A3.382 3.382 0 010 2.889c0-.523.145-1.05.435-1.585.318-.574.619-.92.903-1.04.142-.062.337-.122.584-.179.247-.057.447-.085.6-.085.08 0 .14.009.18.026.102.034.253.25.451.647.063.108.148.262.256.46.108.2.207.38.298.542.091.162.18.314.265.456.017.022.066.093.149.213.082.12.143.22.183.302.04.083.06.164.06.243 0 .114-.081.256-.243.426-.162.17-.338.327-.529.47-.19.141-.366.292-.528.45-.162.16-.243.29-.243.393 0 .051.014.115.043.192.028.076.052.135.072.174.02.04.06.108.12.205.06.096.092.15.097.162a8.946 8.946 0 001.483 2.003A8.946 8.946 0 006.64 8.847c.012.005.066.038.162.098.097.06.165.099.205.119.04.02.098.044.174.072.077.029.141.043.192.043.102 0 .233-.081.392-.243.16-.162.31-.338.452-.528.142-.19.298-.367.469-.529.17-.162.312-.243.426-.243.08 0 .16.02.243.06.082.04.183.1.302.183.12.083.19.132.213.15.142.085.294.173.456.264.162.09.343.19.542.298.198.108.352.193.46.256.397.198.613.349.647.451.018.04.026.1.026.18z" fill="#fff"/></g><defs><clipPath id="atclip0_3076_5949"><path fill="#fff" d="M0 0h12v12H0z"/></clipPath></defs></svg>