<?xml version="1.0" encoding="utf-8"?><svg width="12" height="15" fill="none" xmlns="http://www.w3.org/2000/svg" viewBox="0 0 12 15"><path fill-rule="evenodd" clip-rule="evenodd" d="M.78 3.674c-.565.55-.565 1.433-.565 3.201v1.25c0 1.768 0 2.652.565 3.2.564.55 1.474.55 3.292.55h3.857c1.818 0 2.728 0 3.292-.55.565-.548.565-1.432.565-3.2v-1.25c0-1.768 0-2.652-.565-3.2-.564-.55-1.474-.55-3.292-.55H4.072c-1.818 0-2.728 0-3.292.55zM2.5 5.105a.658.658 0 00-.891.173.61.61 0 00.178.867l3.5 2.269a1.312 1.312 0 001.426 0l3.501-2.269a.611.611 0 00.178-.867.658.658 0 00-.892-.173L6 7.374 2.5 5.105z" fill="#fff"/></svg>