<?xml version="1.0" encoding="utf-8"?><svg width="11" height="12" fill="none" xmlns="http://www.w3.org/2000/svg" viewBox="0 0 11 12"><path d="M1.222 4.625l.917-3.094H8.86l.917 3.094M8.86 8.063a.868.868 0 01-.648-.303 1.1 1.1 0 01-.269-.729 1.1 1.1 0 01.269-.729A.868.868 0 018.86 6c.243 0 .476.109.648.302a1.1 1.1 0 01.269.73 1.1 1.1 0 01-.269.728.868.868 0 01-.648.303zm-6.722 0a.868.868 0 01-.648-.303 1.1 1.1 0 01-.269-.729 1.1 1.1 0 01.269-.729A.868.868 0 012.139 6c.243 0 .476.109.648.302a1.1 1.1 0 01.269.73 1.1 1.1 0 01-.269.728.868.868 0 01-.648.303zm7.59-6.876C9.607.79 9.264.5 8.86.5H2.14c-.403 0-.746.289-.868.688L0 5.313v5.5c0 .182.064.357.179.486.115.129.27.201.432.201h.611a.579.579 0 00.432-.201.733.733 0 00.18-.486v-.688h7.333v.688c0 .182.064.357.179.486.114.129.27.201.432.201h.61a.579.579 0 00.433-.201.733.733 0 00.179-.486v-5.5L9.729 1.188z" fill="#fff"/></svg>