<?xml version="1.0" encoding="utf-8"?><svg width="40" height="40" fill="none" xmlns="http://www.w3.org/2000/svg" viewBox="0 0 40 40"><path d="M24.284 25.007l1.43 3.075s6.429 1.365 6.429 4.611c0 2.307-2.86 2.307-2.86 2.307h-7.617l-3.75-2.083" stroke="#fff" stroke-width="2.6" stroke-linecap="round" stroke-linejoin="round"/><path d="M15.714 25.007l-1.428 3.075s-6.43 1.365-6.43 4.611C7.855 35 10.715 35 10.715 35h3.45l3.75-2.083L22.498 30" stroke="#fff" stroke-width="2.6" stroke-linecap="round" stroke-linejoin="round"/><path d="M5 26.543s3.572-.768 5.715-1.536c2.142-10.764 8.568-9.995 9.285-9.995.715 0 7.143-.769 9.285 9.995 2.143.766 5.715 1.536 5.715 1.536M20 11.667A3.333 3.333 0 1020 5a3.333 3.333 0 000 6.667z" stroke="#fff" stroke-width="2.6" stroke-linecap="round" stroke-linejoin="round"/></svg>