<?xml version="1.0" encoding="utf-8"?><svg width="40" height="40" fill="none" xmlns="http://www.w3.org/2000/svg" viewBox="0 0 40 40"><path d="M35 33.159V17.508c0-.286-.068-.568-.198-.823a1.848 1.848 0 00-.552-.65L21.125 6.368a1.898 1.898 0 00-2.25 0L5.75 16.035a1.85 1.85 0 00-.552.65c-.13.255-.198.537-.198.823v15.65c0 .49.198.957.55 1.303.35.345.828.539 1.325.539h7.5c.497 0 .974-.194 1.326-.54.351-.345.549-.813.549-1.301v-5.524c0-.488.198-.957.55-1.302.35-.345.828-.54 1.325-.54h3.75c.497 0 .974.195 1.326.54.351.345.549.814.549 1.302v5.524c0 .488.198.956.55 1.302.35.345.828.539 1.325.539h7.5c.497 0 .974-.194 1.326-.54.352-.345.549-.813.549-1.301z" stroke="#fff" stroke-width="2.6" stroke-linecap="round" stroke-linejoin="round"/></svg>