<?xml version="1.0" encoding="utf-8"?><svg width="40" height="40" fill="none" xmlns="http://www.w3.org/2000/svg" viewBox="0 0 40 40"><path d="M20.25 4C11.29 4 4 11.29 4 20.25S11.29 36.5 20.25 36.5 36.5 29.21 36.5 20.25 29.21 4 20.25 4zm-1.406 2.578c.053-.005.102.005.156 0V19h-3.828a16.157 16.157 0 00-3.79-9.258 13.653 13.653 0 017.462-3.164zm2.656 0a13.617 13.617 0 017.617 3.164A16.157 16.157 0 0025.328 19H21.5V6.578zM9.625 11.54c1.709 2.07 2.788 4.634 3.047 7.461H6.578a13.632 13.632 0 013.047-7.46zm21.25 0A13.632 13.632 0 0133.922 19h-6.094c.259-2.827 1.338-5.39 3.047-7.46zM6.578 21.5h6.094c-.259 2.827-1.338 5.39-3.047 7.46a13.632 13.632 0 01-3.047-7.46zm8.594 0H19v12.422a13.617 13.617 0 01-7.617-3.164 16.157 16.157 0 003.789-9.258zm6.328 0h3.828a16.157 16.157 0 003.79 9.258 13.617 13.617 0 01-7.618 3.164V21.5zm6.328 0h6.094a13.632 13.632 0 01-3.047 7.46c-1.709-2.07-2.788-4.633-3.047-7.46z" fill="#fff"/></svg>