<?xml version="1.0" encoding="utf-8"?><svg width="40" height="40" fill="none" xmlns="http://www.w3.org/2000/svg" viewBox="0 0 40 40"><path d="M20 4c1.469 0 2.885.188 4.25.563a15.76 15.76 0 013.828 1.609 16.067 16.067 0 013.235 2.5 15.881 15.881 0 012.5 3.25 16.113 16.113 0 011.609 3.828c.375 1.354.568 2.77.578 4.25 0 1.469-.188 2.885-.563 4.25a15.76 15.76 0 01-1.609 3.828 16.066 16.066 0 01-2.5 3.235 15.88 15.88 0 01-3.25 2.5 16.113 16.113 0 01-3.828 1.609c-1.354.375-2.77.568-4.25.578-1.469 0-2.885-.188-4.25-.563a15.76 15.76 0 01-3.828-1.609 16.067 16.067 0 01-3.235-2.5 15.879 15.879 0 01-2.5-3.25 16.18 16.18 0 01-1.609-3.812A16.224 16.224 0 014 20c0-1.469.188-2.885.563-4.25a15.76 15.76 0 011.609-3.828 16.069 16.069 0 012.5-3.235 15.88 15.88 0 013.25-2.5 16.18 16.18 0 013.812-1.609A16.224 16.224 0 0120 4zm0 2c-1.281 0-2.516.167-3.703.5a14.382 14.382 0 00-3.344 1.406 13.51 13.51 0 00-2.844 2.203 14.58 14.58 0 00-2.187 2.829A14.114 14.114 0 006.5 16.28 13.128 13.128 0 006 20c0 .677.047 1.344.14 2 1.271-.02 2.412-.276 3.423-.766 1.01-.49 1.916-1.13 2.718-1.922a11.787 11.787 0 002.047-2.718 26.663 26.663 0 001.485-3.172c.25-.688.53-1.365.843-2.031.313-.667.667-1.318 1.063-1.954.396-.635.817-1.24 1.265-1.812.448-.573.959-1.11 1.532-1.61a2.014 2.014 0 00-.25-.015H20zM6.578 23.984a13.622 13.622 0 001.406 3.188c.605 1 1.313 1.906 2.125 2.719.813.812 1.72 1.52 2.72 2.125 1 .604 2.062 1.073 3.187 1.406.083-1.458.406-2.771.968-3.938a11.309 11.309 0 012.203-3.109 14.818 14.818 0 013.094-2.36 23.68 23.68 0 013.64-1.703c.688-.25 1.407-.562 2.157-.937s1.474-.802 2.172-1.281a13.016 13.016 0 001.922-1.61 8.177 8.177 0 001.406-1.89 13.737 13.737 0 00-3.688-6.484 14.552 14.552 0 00-2.968-2.266 13.9 13.9 0 00-3.516-1.422 7.761 7.761 0 00-1.89 1.406 13.578 13.578 0 00-1.594 1.922 19.91 19.91 0 00-1.297 2.172c-.385.75-.698 1.469-.938 2.156a23.68 23.68 0 01-1.703 3.64 14.453 14.453 0 01-2.359 3.079A11.768 11.768 0 0110.515 23c-1.166.573-2.479.901-3.937.984zM20 34c1.281 0 2.516-.167 3.703-.5a14.384 14.384 0 003.344-1.406 13.511 13.511 0 002.844-2.203 14.578 14.578 0 002.187-2.828 14.115 14.115 0 001.422-3.344c.344-1.209.51-2.448.5-3.719v-.25c0-.083-.005-.172-.016-.266-.49.552-1.02 1.058-1.593 1.516-.573.458-1.177.885-1.813 1.281-.635.396-1.286.745-1.953 1.047-.667.302-1.349.589-2.047.86a22.44 22.44 0 00-3.172 1.468 12.153 12.153 0 00-2.718 2.063 10.227 10.227 0 00-1.922 2.703c-.49 1-.745 2.146-.766 3.437.656.094 1.323.141 2 .141z" fill="#fff"/><path fill-rule="evenodd" clip-rule="evenodd" d="M19.998 3.7H20c1.495 0 2.938.19 4.33.573 1.389.382 2.69.929 3.9 1.64 1.21.711 2.308 1.56 3.295 2.547a16.174 16.174 0 012.547 3.31 16.412 16.412 0 011.64 3.9c.382 1.38.578 2.824.588 4.328V20c0 1.495-.19 2.938-.573 4.33a16.063 16.063 0 01-1.64 3.9 16.375 16.375 0 01-2.547 3.295 16.18 16.18 0 01-3.31 2.547 16.411 16.411 0 01-3.9 1.639c-1.38.382-2.824.578-4.328.589H20c-1.494 0-2.938-.19-4.33-.573a16.06 16.06 0 01-3.9-1.64 16.374 16.374 0 01-3.294-2.547 16.183 16.183 0 01-2.548-3.31 16.484 16.484 0 01-1.639-3.884 16.524 16.524 0 01-.589-4.344V20c0-1.495.191-2.938.573-4.33a16.06 16.06 0 011.64-3.9A16.37 16.37 0 018.46 8.475a16.179 16.179 0 013.311-2.547 16.481 16.481 0 013.883-1.639 16.523 16.523 0 014.344-.589zM6.3 19.998V20c0 .572.034 1.136.103 1.692 1.125-.05 2.133-.293 3.029-.728A9.839 9.839 0 0012.07 19.1a11.49 11.49 0 001.995-2.65 26.361 26.361 0 001.466-3.133c.253-.695.537-1.379.853-2.053a19.01 19.01 0 011.08-1.984c.4-.644.829-1.257 1.283-1.839.31-.397.65-.776 1.017-1.138-1.17.02-2.3.182-3.387.487a14.082 14.082 0 00-3.274 1.377 13.211 13.211 0 00-2.781 2.154 14.282 14.282 0 00-2.143 2.77 13.814 13.814 0 00-1.391 3.273 12.828 12.828 0 00-.489 3.635zM20 6c-1.281 0-2.515.167-3.703.5a14.382 14.382 0 00-3.344 1.406 13.51 13.51 0 00-2.843 2.203 14.58 14.58 0 00-2.188 2.829A14.115 14.115 0 006.5 16.28 13.127 13.127 0 006 20c0 .677.047 1.344.14 2 1.272-.02 2.412-.276 3.423-.766a10.14 10.14 0 002.718-1.922 11.787 11.787 0 002.047-2.718 26.663 26.663 0 001.485-3.172c.25-.688.531-1.365.844-2.031.312-.667.666-1.318 1.062-1.953.396-.636.818-1.24 1.266-1.813a11.557 11.557 0 011.53-1.61 2.014 2.014 0 00-.25-.015H20zm5.818 16.031h.002a20.25 20.25 0 002.124-.924c.738-.37 1.45-.79 2.136-1.26a12.702 12.702 0 001.878-1.573 7.937 7.937 0 001.3-1.72 13.472 13.472 0 00-3.578-6.231 14.252 14.252 0 00-2.908-2.22 13.572 13.572 0 00-3.328-1.361 7.501 7.501 0 00-1.716 1.298c-.57.57-1.09 1.197-1.559 1.88-.472.687-.897 1.4-1.277 2.139-.38.74-.687 1.445-.921 2.118l-.002.005a23.984 23.984 0 01-1.725 3.687 14.748 14.748 0 01-2.408 3.141c-.93.92-1.993 1.672-3.188 2.26-1.103.541-2.328.869-3.67.986.315.97.737 1.89 1.263 2.76.592.98 1.286 1.867 2.08 2.663a13.947 13.947 0 002.662 2.08 13.3 13.3 0 002.76 1.264c.117-1.342.44-2.566.971-3.669a11.61 11.61 0 012.262-3.191 15.113 15.113 0 013.156-2.407 23.98 23.98 0 013.686-1.725zm-9.78 11.084c-.01.102-.016.204-.022.307l-.295-.091a13.61 13.61 0 01-2.893-1.315c-1-.604-1.906-1.313-2.718-2.125a14.246 14.246 0 01-2.125-2.72 13.607 13.607 0 01-1.407-3.187l.307-.02c1.336-.11 2.547-.431 3.63-.964a11.768 11.768 0 003.11-2.203 14.447 14.447 0 002.36-3.078 23.68 23.68 0 001.703-3.64c.24-.688.552-1.407.937-2.157.386-.75.818-1.474 1.297-2.172.48-.698 1.01-1.339 1.594-1.922a7.76 7.76 0 011.89-1.406c1.26.323 2.433.797 3.516 1.422a14.552 14.552 0 012.969 2.265 13.737 13.737 0 013.687 6.485 8.177 8.177 0 01-1.406 1.89 13.016 13.016 0 01-1.922 1.61c-.698.479-1.422.906-2.172 1.281-.75.375-1.468.688-2.156.938a23.684 23.684 0 00-3.64 1.703 14.816 14.816 0 00-3.094 2.359 11.312 11.312 0 00-2.203 3.11c-.523 1.084-.839 2.294-.948 3.63zm10.645-8.646c-1.08.4-2.122.884-3.13 1.449a11.85 11.85 0 00-2.652 2.012 9.927 9.927 0 00-1.866 2.624c-.434.886-.678 1.899-.727 3.044.556.068 1.12.102 1.692.102 1.255 0 2.462-.163 3.622-.489a14.083 14.083 0 003.275-1.377 13.212 13.212 0 002.78-2.154 14.282 14.282 0 002.143-2.77 13.822 13.822 0 001.392-3.273c.315-1.11.478-2.247.488-3.411-.355.358-.729.694-1.122 1.008-.582.466-1.196.9-1.841 1.302-.646.402-1.309.758-1.988 1.065-.672.305-1.36.593-2.062.866l-.004.002zm7.302-4.985A13.012 13.012 0 0132.39 21c-.573.458-1.177.885-1.813 1.281-.635.396-1.286.745-1.953 1.047-.666.302-1.349.589-2.047.86a22.434 22.434 0 00-3.171 1.468 12.148 12.148 0 00-2.72 2.063 10.228 10.228 0 00-1.921 2.703c-.49 1-.745 2.146-.766 3.437.657.094 1.323.141 2 .141 1.282 0 2.516-.167 3.703-.5a14.384 14.384 0 003.344-1.406 13.511 13.511 0 002.844-2.203 14.572 14.572 0 002.187-2.828 14.111 14.111 0 001.422-3.344c.344-1.209.51-2.448.5-3.719v-.25c0-.083-.005-.172-.015-.266zM20 4c1.469 0 2.886.188 4.25.563a15.76 15.76 0 013.828 1.609 16.068 16.068 0 013.235 2.5 15.878 15.878 0 012.5 3.25 16.114 16.114 0 011.61 3.828c.374 1.354.567 2.77.577 4.25 0 1.469-.187 2.885-.562 4.25a15.76 15.76 0 01-1.61 3.828 16.066 16.066 0 01-2.5 3.235 15.876 15.876 0 01-3.25 2.5 16.113 16.113 0 01-3.828 1.609c-1.354.375-2.77.568-4.25.578-1.468 0-2.885-.188-4.25-.563a15.757 15.757 0 01-3.828-1.609 16.067 16.067 0 01-3.234-2.5 15.876 15.876 0 01-2.5-3.25 16.181 16.181 0 01-1.61-3.812A16.224 16.224 0 014 20c0-1.469.188-2.885.563-4.25a15.76 15.76 0 011.61-3.828 16.07 16.07 0 012.5-3.234 15.88 15.88 0 013.25-2.5 16.18 16.18 0 013.812-1.61A16.224 16.224 0 0120 4z" fill="#fff"/></svg>