<?xml version="1.0" encoding="utf-8"?><svg width="20" height="16" fill="inherit" stroke="inherit" xmlns="http://www.w3.org/2000/svg" viewBox="0 0 20 16"><path d="M10.004 15.25v0h-.008a.206.206 0 01-.144-.057s0 0 0 0L2.475 7.873h-.001A4.178 4.178 0 011.25 4.921c0-1.103.439-2.164 1.224-2.95A4.25 4.25 0 015.46.75a4.25 4.25 0 012.987 1.223L9.472 2.99h1.056l1.025-1.016s0 0 0 0A4.25 4.25 0 0114.54.75c1.12 0 2.194.44 2.986 1.221a4.177 4.177 0 011.224 2.951c0 1.104-.44 2.165-1.225 2.951v.001l-7.376 7.318h-.001a.2.2 0 01-.144.058z" stroke-opacity=".5" stroke-width="1.5" stroke-linejoin="bevel"/></svg>