<?xml version="1.0" encoding="utf-8"?><svg width="328" height="411" fill="none" xmlns="http://www.w3.org/2000/svg" viewBox="0 0 328 411"><g clip-path="url(#asclip0_3021_6726)"><path d="M180.393 175.183l.214.3-.223.293C136.588 233.403 92.84 290.97 49.009 348.647 1.827 410.733-45.45 472.947-92.992 535.5H49.674c15.344-20.187 65.091-85.649 111.071-146.155l61.535-80.975 19.599-25.792 5.427-7.141 1.423-1.872.364-.479.092-.121.023-.031.006-.007a73.075 73.075 0 01.4.3l-.398-.303.411-.542.394.555-.368.262.327-.232.042-.029.004.005.012.018.051.071.2.282.782 1.1 2.976 4.189 10.709 15.068c8.911 12.538 20.909 29.415 33.258 46.775 23.556 33.118 48.384 67.99 55.486 77.844V222.422A4988886.34 4988886.34 0 00140.576-76.5H1.114C14.617-57.553 84.797 40.974 137.32 114.712l43.073 60.471z" stroke="#fff" stroke-opacity=".25"/></g><defs><clipPath id="asclip0_3021_6726"><path fill="#fff" d="M0 0h328v411H0z"/></clipPath></defs></svg>