<?xml version="1.0" encoding="utf-8"?><svg width="18" height="18" fill="inherit" xmlns="http://www.w3.org/2000/svg" viewBox="0 0 18 18"><path d="M14.492 5.857c0 .212-.014.421-.042.627a4.89 4.89 0 012.303 2.725 4.733 4.733 0 01-.201 3.52 4.934 4.934 0 01-2.598 2.461 5.13 5.13 0 01-3.625.105V18H8.663v-2.914c-.96.476-2.062.609-3.112.373a4.593 4.593 0 01-2.63-1.66 4.367 4.367 0 01-.914-2.917 4.392 4.392 0 011.23-2.804 6.46 6.46 0 001.501 2.313l1.19-1.134a4.78 4.78 0 01-1.428-3.4 4.79 4.79 0 011.463-3.434A5.07 5.07 0 019.496 1a5.07 5.07 0 013.533 1.423 4.79 4.79 0 011.463 3.434z"/></svg>