<?xml version="1.0" encoding="utf-8"?><svg width="18" height="18" fill="inherit" xmlns="http://www.w3.org/2000/svg" viewBox="0 0 18 18"><path d="M4.1 3a.5.5 0 00-.5.5v11.24a.5.5 0 00.5.5h1.7a.5.5 0 00.5-.5V9.994h5.4v4.746a.5.5 0 00.5.5h1.7a.5.5 0 00.5-.5V3.5a.5.5 0 00-.5-.5h-1.7a.5.5 0 00-.5.5v4.746H6.3V3.5a.5.5 0 00-.5-.5H4.1zM.9 11.743c0 .232.095.454.264.618a.914.914 0 00.636.256h.9V5.623h-.9a.914.914 0 00-.636.256.862.862 0 00-.264.618v1.749H0v1.748h.9v1.749zm16.2-5.246a.862.862 0 00-.264-.618.914.914 0 00-.636-.256h-.9v6.994h.9a.914.914 0 00.636-.256.862.862 0 00.264-.618V9.994h.9V8.246h-.9V6.497z"/></svg>