<?xml version="1.0" encoding="utf-8"?><svg width="18" height="18" fill="inherit" xmlns="http://www.w3.org/2000/svg" viewBox="0 0 18 18"><path d="M15.602 12.5c-.17 1.183-1.152 2.1-2.352 2.1h-1.023v-1.4h2.046c-.048-.896.177-2.772-.32-3.535-.662-1.435-2.523-1.673-3.819-2.03C9.5 7.6 8.818 6.9 8.71 6.2H6.773a.342.342 0 01-.341-.35c0-.196.15-.35.34-.35h1.705v-.7H6.773a.342.342 0 01-.341-.35c0-.196.15-.35.34-.35h1.705V2H2.702v11.2h2.025v1.4H2V16h11.25c1.95 0 3.56-1.54 3.75-3.5h-1.398zm-4.738 2.1H6.09v-1.4h4.773v1.4z"/></svg>