<?xml version="1.0" encoding="utf-8"?><svg width="9" height="9" fill="none" xmlns="http://www.w3.org/2000/svg" viewBox="0 0 9 9"><g clip-path="url(#bqclip0_1008_19738)"><path fill-rule="evenodd" clip-rule="evenodd" d="M2.213 3.35a2.063 2.063 0 114.125 0h.344a.688.688 0 01.687.688v3.437a.687.687 0 01-.687.688H1.869a.688.688 0 01-.687-.688V4.038a.688.688 0 01.687-.688h.344zm2.062-1.375A1.375 1.375 0 015.65 3.35H2.9a1.375 1.375 0 011.375-1.375zm.688 3.438a.687.687 0 01-.344.595v.436a.344.344 0 01-.687 0v-.436a.687.687 0 111.03-.595z" fill="#53667F"/></g><defs><clipPath id="bqclip0_1008_19738"><path fill="#fff" transform="translate(.15 .6)" d="M0 0h8.25v8.25H0z"/></clipPath></defs></svg>