<?xml version="1.0" encoding="utf-8"?><svg width="15" height="15" fill="none" xmlns="http://www.w3.org/2000/svg" viewBox="0 0 15 15"><path d="M13.493 5.378H9.766m0 0l-.002-3.405m.002 3.405L14 1m-.788 11.417s-.807.82-1.005 1.06c-.322.355-.701.523-1.199.523-.048 0-.099 0-.147-.003-.947-.063-1.828-.445-2.488-.77-1.805-.902-3.39-2.183-4.708-3.806C2.577 8.068 1.85 6.818 1.368 5.475c-.297-.82-.405-1.459-.357-2.061.032-.385.175-.705.44-.978L2.54 1.314c.156-.152.322-.234.485-.234.2 0 .363.125.465.23l.01.01c.195.188.38.382.574.59.099.105.201.21.303.319l.871.899c.338.348.338.671 0 1.02-.092.095-.182.19-.274.283-.268.283-.058.066-.335.323-.007.006-.013.01-.016.016-.275.283-.224.56-.166.747l.01.03c.226.566.545 1.1 1.03 1.735l.003.003c.88 1.12 1.809 1.991 2.833 2.66.13.085.264.154.392.22.115.06.223.115.316.175.013.006.025.016.038.023.109.056.21.082.316.082.265 0 .43-.171.485-.227l.625-.645c.108-.112.28-.247.482-.247.197 0 .36.128.459.24l.006.007 1.758 1.813c.329.336.003 1.03.003 1.03z" stroke="#fff" stroke-width="1.5" stroke-linejoin="round"/></svg>