<?xml version="1.0" encoding="utf-8"?><svg width="24" height="24" fill="none" xmlns="http://www.w3.org/2000/svg" viewBox="0 0 24 24"><path fill-rule="evenodd" clip-rule="evenodd" d="M12.069 12.394a6.396 6.396 0 01-4.444-1.81A6.111 6.111 0 015.773 6.24a6.186 6.186 0 011.844-4.378A6.472 6.472 0 0112.069 0c.834-.001 1.66.16 2.43.474.77.314 1.47.775 2.055 1.356a6.134 6.134 0 011.359 2.027c.31.757.464 1.567.451 2.383a5.958 5.958 0 01-.458 2.367 6.068 6.068 0 01-1.362 2.008 6.23 6.23 0 01-2.054 1.332 6.343 6.343 0 01-2.421.447zm0-8.718c-.352 0-.7.068-1.025.203-.324.134-.617.33-.862.578-.244.247-.436.54-.562.86a2.513 2.513 0 00-.174 1.008c-.005.335.06.666.19.975.132.309.326.588.572.82.246.232.538.413.858.53.32.118.661.17 1.003.154.34.008.677-.05.993-.17.316-.121.605-.302.849-.533.244-.23.438-.506.572-.811.135-.305.205-.633.209-.965a2.51 2.51 0 00-.174-1.007 2.558 2.558 0 00-.563-.861 2.626 2.626 0 00-.862-.578 2.675 2.675 0 00-1.024-.203zm2.535 13.847l3.585 3.419a1.748 1.748 0 01.526 1.24 1.717 1.717 0 01-.526 1.239 1.648 1.648 0 01-.568.427 1.684 1.684 0 01-1.967-.427L12.069 20l-3.498 3.42a1.784 1.784 0 01-1.312.513 2.125 2.125 0 01-1.31-.513 1.718 1.718 0 010-2.479l3.672-3.42A18.4 18.4 0 015.86 15.9a1.864 1.864 0 01-.808-1.121 1.827 1.827 0 01.196-1.358c.133-.207.308-.385.514-.524a1.868 1.868 0 011.428-.28c.245.052.476.15.68.291a8.352 8.352 0 004.242 1.153c1.494 0 2.96-.398 4.24-1.153a1.869 1.869 0 011.424-.294c.246.048.478.144.684.283.207.139.382.317.515.524.248.402.332.88.235 1.34a1.86 1.86 0 01-.76 1.139 19.157 19.157 0 01-3.847 1.624z" fill="#fff" fill-opacity=".75"/></svg>