<?xml version="1.0" encoding="utf-8"?><svg width="24" height="24" fill="none" xmlns="http://www.w3.org/2000/svg" viewBox="0 0 24 24"><path d="M23.747 7.599s-.234-1.633-.956-2.356c-.909-.946-1.93-.946-2.408-1.002C17.037 4 12.005 4 12.005 4h-.01S6.963 4 3.6 4.241c-.469.056-1.49.056-2.409 1.002-.712.723-.946 2.356-.946 2.356S0 9.529 0 11.449v1.799c0 1.92.244 3.84.244 3.84s.234 1.632.956 2.355c.909.947 2.108.919 2.642 1.011 1.921.186 8.153.242 8.153.242s5.042-.01 8.397-.25c.469-.056 1.49-.056 2.409-1.003.721-.723.955-2.356.955-2.356s.244-1.92.244-3.84v-1.799c-.01-1.92-.253-3.85-.253-3.85zM9.521 15.427V8.758l6.485 3.349-6.485 3.32z" fill="#fff" fill-opacity=".75"/></svg>