<?xml version="1.0" encoding="utf-8"?><svg viewBox="0 0 584 411" xmlns="http://www.w3.org/2000/svg" xmlns:xlink="http://www.w3.org/1999/xlink"><style>:root>svg{display:none}:root>svg:target{display:block}</style><svg fill="none" viewBox="0 0 40 40" id="bank-alfa" xmlns="http://www.w3.org/2000/svg"><g clip-path="url(#aaclip0_3010_5234)" fill="#fff"><path d="M14.82 21.62h10.37l1.75 5.5h5.75L24.93 4c-.75-2.22-1.62-4-4.59-4-2.97 0-3.88 1.75-4.66 4L7.56 27.11h5.39l1.87-5.49zM20.08 6h.13l3.49 11h-7.3l3.68-11zM33.29 34.53H7V40h26.29v-5.47z"/></g><defs><clipPath id="aaclip0_3010_5234"><path fill="#fff" d="M0 0h40v40H0z"/></clipPath></defs></svg><svg fill="none" viewBox="0 0 40 41" id="bank-arrow" xmlns="http://www.w3.org/2000/svg"><path d="M20 37.292c9.204 0 16.666-7.462 16.666-16.667 0-9.205-7.462-16.667-16.666-16.667-9.205 0-16.667 7.462-16.667 16.667 0 9.205 7.462 16.667 16.667 16.667z" fill="#41B1D9"/><path d="M14.167 20.625h10M20.833 25.625l5-5-5-5" stroke="#fff" stroke-width="2" stroke-linecap="round" stroke-linejoin="round"/></svg><svg fill="none" viewBox="0 0 40 40" id="bank-psb" xmlns="http://www.w3.org/2000/svg"><g clip-path="url(#acclip0_3010_5240)"><path d="M26.67 0L13.33 13.33h13.34V40L40 26.7V0H26.67z" fill="#E86630"/><path d="M13.33 40l13.34-13.33H13.33V0L0 13.3V40h13.33z" fill="#fff"/></g><defs><clipPath id="acclip0_3010_5240"><path fill="#fff" d="M0 0h40v40H0z"/></clipPath></defs></svg><svg fill="none" viewBox="0 0 40 40" id="bank-sber" xmlns="http://www.w3.org/2000/svg"><path d="M35.822 7.668c.946 1.2 1.734 2.517 2.404 3.91L20.02 24.785l-7.646-4.724v-5.654l7.606 4.686L35.822 7.668z" fill="#21A038"/><path d="M4.61 19.673c0-.271 0-.504.04-.775l-4.61-.232c0 .31-.04.658-.04.968 0 5.421 2.246 10.34 5.872 13.902l3.27-3.214c-2.797-2.71-4.531-6.467-4.531-10.65z" fill="url(#adpaint0_linear_3010_5241)"/><path d="M19.98 4.57c.276 0 .513 0 .789.038l.236-4.53c-.315 0-.67-.04-.985-.04a20.135 20.135 0 00-14.148 5.77l3.271 3.215A15.35 15.35 0 0119.98 4.57z" fill="url(#adpaint1_linear_3010_5241)"/><path d="M19.98 34.776c-.276 0-.512 0-.788-.04l-.236 4.532c.315 0 .67.038.985.038a20.135 20.135 0 0014.148-5.77l-3.271-3.214c-2.759 2.788-6.582 4.454-10.838 4.454z" fill="url(#adpaint2_linear_3010_5241)"/><path d="M28.65 7.203l3.902-2.827A20.238 20.238 0 0019.98 0v4.53c3.232.04 6.227 1.008 8.67 2.673z" fill="url(#adpaint3_linear_3010_5241)"/><path d="M40 19.673c0-1.2-.118-2.363-.315-3.524l-4.296 3.136v.388c0 4.453-1.97 8.442-5.084 11.191l3.114 3.37C37.439 30.67 40 25.442 40 19.672z" fill="#21A038"/><path d="M19.98 34.776A15.387 15.387 0 018.591 29.78l-3.428 3.06c3.665 3.988 8.946 6.466 14.817 6.466v-4.53z" fill="url(#adpaint4_linear_3010_5241)"/><path d="M9.695 8.48L6.58 5.113C2.522 8.713 0 13.902 0 19.672h4.61c0-4.414 1.971-8.442 5.085-11.191z" fill="url(#adpaint5_linear_3010_5241)"/><defs><linearGradient id="adpaint0_linear_3010_5241" x1="5.38" y1="32.985" x2=".879" y2="19.543" gradientUnits="userSpaceOnUse"><stop offset=".144" stop-color="#F2E913"/><stop offset=".304" stop-color="#E7E518"/><stop offset=".582" stop-color="#CADB26"/><stop offset=".891" stop-color="#A3CD39"/></linearGradient><linearGradient id="adpaint1_linear_3010_5241" x1="7.186" y1="5.298" x2="19.06" y2=".622" gradientUnits="userSpaceOnUse"><stop offset=".059" stop-color="#0FA8E0"/><stop offset=".538" stop-color="#0099F9"/><stop offset=".923" stop-color="#0291EB"/></linearGradient><linearGradient id="adpaint2_linear_3010_5241" x1="18.685" y1="35.453" x2="32.897" y2="32.134" gradientUnits="userSpaceOnUse"><stop offset=".123" stop-color="#A3CD39"/><stop offset=".285" stop-color="#86C339"/><stop offset=".869" stop-color="#21A038"/></linearGradient><linearGradient id="adpaint3_linear_3010_5241" x1="19.033" y1="2.886" x2="30.826" y2="6.646" gradientUnits="userSpaceOnUse"><stop offset=".057" stop-color="#0291EB"/><stop offset=".79" stop-color="#0C8ACB"/></linearGradient><linearGradient id="adpaint4_linear_3010_5241" x1="6.335" y1="33.557" x2="18.979" y2="38.439" gradientUnits="userSpaceOnUse"><stop offset=".132" stop-color="#F2E913"/><stop offset=".298" stop-color="#EBE716"/><stop offset=".531" stop-color="#D9E01F"/><stop offset=".802" stop-color="#BBD62D"/><stop offset=".983" stop-color="#A3CD39"/></linearGradient><linearGradient id="adpaint5_linear_3010_5241" x1="3.533" y1="20.22" x2="8.403" y2="7.128" gradientUnits="userSpaceOnUse"><stop offset=".07" stop-color="#A3CD39"/><stop offset=".26" stop-color="#81C55F"/><stop offset=".922" stop-color="#0FA8E0"/></linearGradient></defs></svg><svg fill="none" viewBox="0 0 40 40" id="bank-skb" xmlns="http://www.w3.org/2000/svg"><g clip-path="url(#aeclip0_3010_5242)"><path d="M24 .4v10.4h-4c-2.4 0-4.8 1-6.5 2.7-1.7 1.7-2.7 4.1-2.7 6.5 0 2.4 1 4.8 2.7 6.5 1.7 1.7 4.1 2.7 6.5 2.7h4v10.4c4.5-.9 8.6-3.3 11.5-6.9C38.4 29 40 24.6 40 20s-1.6-9.1-4.5-12.6c-2.9-3.6-7-6.1-11.5-7z" fill="#fff"/><path d="M20 32.4c-3.2-.1-6.3-1.4-8.6-3.8-2.3-2.3-3.5-5.4-3.5-8.7 0-3.3 1.3-6.3 3.5-8.7C13.7 9 16.8 7.6 20 7.5h.8V0H20C14.7 0 9.6 2.1 5.9 5.9 2.1 9.6 0 14.7 0 20c0 5.3 2.1 10.4 5.9 14.1C9.6 37.9 14.7 40 20 40h.8v-7.6H20z" fill="#FC5055"/></g><defs><clipPath id="aeclip0_3010_5242"><path fill="#fff" d="M0 0h40v40H0z"/></clipPath></defs></svg><svg fill="none" viewBox="0 0 36 37" id="banks-x" xmlns="http://www.w3.org/2000/svg"><path d="M9 9.5l18 18m0-18l-18 18" stroke="#fff" stroke-opacity=".25" stroke-width="1.5"/></svg><svg fill="none" viewBox="0 0 7 11" id="btn-arrow-dark" xmlns="http://www.w3.org/2000/svg"><path d="M1 10l4.487-4.5L1 1" stroke="#fff" stroke-opacity=".5" stroke-width="1.5" stroke-linecap="round" stroke-linejoin="round"/></svg><svg fill="none" viewBox="0 0 7 11" id="btn-arrow-light" xmlns="http://www.w3.org/2000/svg"><path d="M1 10l4.487-4.5L1 1" stroke="#252831" stroke-opacity=".5" stroke-width="1.5" stroke-linecap="round" stroke-linejoin="round"/></svg><svg fill="none" viewBox="0 0 7 12" id="btn-back-arrow" xmlns="http://www.w3.org/2000/svg"><path d="M6 10.5L1 6l5-4.5" stroke="#252831" stroke-width="1.5" stroke-linecap="round" stroke-linejoin="round"/></svg><svg fill="none" viewBox="0 0 12 12" id="contacts-icon-geo" xmlns="http://www.w3.org/2000/svg"><path d="M8.535 1.456a5.021 5.021 0 00-7.07 0A4.916 4.916 0 00.38 3.064a4.958 4.958 0 001.084 5.421L5 12l3.535-3.515A4.916 4.916 0 009.62 6.877a4.958 4.958 0 00-1.084-5.421zM5 6.632c-.418 0-.81-.165-1.105-.463a1.59 1.59 0 010-2.233A1.544 1.544 0 015 3.474c.417 0 .81.164 1.105.462a1.59 1.59 0 010 2.233A1.544 1.544 0 015 6.632z" fill="#fff"/></svg><svg fill="none" viewBox="0 0 12 15" id="contacts-icon-mail" xmlns="http://www.w3.org/2000/svg"><path fill-rule="evenodd" clip-rule="evenodd" d="M.78 3.674c-.565.55-.565 1.433-.565 3.201v1.25c0 1.768 0 2.652.565 3.2.564.55 1.474.55 3.292.55h3.857c1.818 0 2.728 0 3.292-.55.565-.548.565-1.432.565-3.2v-1.25c0-1.768 0-2.652-.565-3.2-.564-.55-1.474-.55-3.292-.55H4.072c-1.818 0-2.728 0-3.292.55zM2.5 5.105a.658.658 0 00-.891.173.61.61 0 00.178.867l3.5 2.269a1.312 1.312 0 001.426 0l3.501-2.269a.611.611 0 00.178-.867.658.658 0 00-.892-.173L6 7.374 2.5 5.105z" fill="#fff"/></svg><svg fill="none" viewBox="0 0 12 12" id="contacts-icon-phone" xmlns="http://www.w3.org/2000/svg"><g clip-path="url(#alclip0_3076_5949)"><path d="M12 9.477c0 .154-.028.354-.085.601a3.381 3.381 0 01-.18.584c-.118.284-.465.585-1.039.903-.534.29-1.062.435-1.585.435a3.38 3.38 0 01-.452-.03 3.495 3.495 0 01-.49-.106 7.333 7.333 0 01-.4-.124 33.61 33.61 0 01-.474-.175 18.566 18.566 0 00-.417-.153 7.71 7.71 0 01-1.492-.708c-.721-.448-1.471-1.062-2.25-1.84-.778-.779-1.392-1.529-1.84-2.25a7.72 7.72 0 01-.708-1.492c-.017-.051-.068-.19-.153-.417a33.581 33.581 0 01-.175-.473 7.306 7.306 0 01-.124-.401 3.502 3.502 0 01-.106-.49A3.382 3.382 0 010 2.889c0-.523.145-1.05.435-1.585.318-.574.619-.92.903-1.04.142-.062.337-.122.584-.179.247-.057.447-.085.6-.085.08 0 .14.009.18.026.102.034.253.25.451.647.063.108.148.262.256.46.108.2.207.38.298.542.091.162.18.314.265.456.017.022.066.093.149.213.082.12.143.22.183.302.04.083.06.164.06.243 0 .114-.081.256-.243.426-.162.17-.338.327-.529.47-.19.141-.366.292-.528.45-.162.16-.243.29-.243.393 0 .051.014.115.043.192.028.076.052.135.072.174.02.04.06.108.12.205.06.096.092.15.097.162a8.946 8.946 0 001.483 2.003A8.946 8.946 0 006.64 8.847c.012.005.066.038.162.098.097.06.165.099.205.119.04.02.098.044.174.072.077.029.141.043.192.043.102 0 .233-.081.392-.243.16-.162.31-.338.452-.528.142-.19.298-.367.469-.529.17-.162.312-.243.426-.243.08 0 .16.02.243.06.082.04.183.1.302.183.12.083.19.132.213.15.142.085.294.173.456.264.162.09.343.19.542.298.198.108.352.193.46.256.397.198.613.349.647.451.018.04.026.1.026.18z" fill="#fff"/></g><defs><clipPath id="alclip0_3076_5949"><path fill="#fff" d="M0 0h12v12H0z"/></clipPath></defs></svg><svg fill="none" viewBox="0 0 584 38" id="filters-bottom-art" xmlns="http://www.w3.org/2000/svg"><g clip-path="url(#amclip0_3033_6202)"><path d="M583.639-.493H36.501L-216.872 276.5h546.621L583.639-.493z" stroke="#fff"/></g><defs><clipPath id="amclip0_3033_6202"><path fill="#fff" transform="matrix(-1 0 0 1 584 0)" d="M0 0h584v38H0z"/></clipPath></defs></svg><svg fill="none" viewBox="0 0 24 24" id="filters-clear" xmlns="http://www.w3.org/2000/svg"><path d="M12 22c5.5 0 10-4.5 10-10S17.5 2 12 2 2 6.5 2 12s4.5 10 10 10zM9.17 14.83l5.66-5.66M14.83 14.83L9.17 9.17" stroke="#fff" stroke-width="1.5" stroke-linecap="round" stroke-linejoin="round"/></svg><svg fill="none" viewBox="0 0 24 24" id="filters-hide" xmlns="http://www.w3.org/2000/svg"><path d="M12 2C6.477 2 2 6.477 2 12s4.477 10 10 10 10-4.477 10-10S17.523 2 12 2z" stroke="#fff" stroke-width="1.5" stroke-miterlimit="10" stroke-linecap="round" stroke-linejoin="round"/><path d="M15.53 13.26L12 9.74l-3.53 3.52" stroke="#fff" stroke-width="1.5" stroke-linecap="round" stroke-linejoin="round"/></svg><svg fill="none" viewBox="0 0 328 411" id="home-about-bg-art" xmlns="http://www.w3.org/2000/svg"><g clip-path="url(#apclip0_3021_6726)"><path d="M180.393 175.183l.214.3-.223.293C136.588 233.403 92.84 290.97 49.009 348.647 1.827 410.733-45.45 472.947-92.992 535.5H49.674c15.344-20.187 65.091-85.649 111.071-146.155l61.535-80.975 19.599-25.792 5.427-7.141 1.423-1.872.364-.479.092-.121.023-.031.006-.007a73.075 73.075 0 01.4.3l-.398-.303.411-.542.394.555-.368.262.327-.232.042-.029.004.005.012.018.051.071.2.282.782 1.1 2.976 4.189 10.709 15.068c8.911 12.538 20.909 29.415 33.258 46.775 23.556 33.118 48.384 67.99 55.486 77.844V222.422A4988886.34 4988886.34 0 00140.576-76.5H1.114C14.617-57.553 84.797 40.974 137.32 114.712l43.073 60.471z" stroke="#fff" stroke-opacity=".25"/></g><defs><clipPath id="apclip0_3021_6726"><path fill="#fff" d="M0 0h328v411H0z"/></clipPath></defs></svg><svg fill="none" viewBox="0 0 34 34" id="icon-arrow-in-circle-grey" xmlns="http://www.w3.org/2000/svg"><path d="M16.834 34C26.038 34 33.5 26.538 33.5 17.333 33.5 8.13 26.038.667 16.834.667 7.629.667.167 8.129.167 17.333.167 26.538 7.629 34 16.834 34z" fill="#53667F"/><path d="M11 17.333h10M17.667 22.333l5-5-5-5" stroke="#fff" stroke-width="2" stroke-linecap="round" stroke-linejoin="round"/></svg><svg fill="none" viewBox="0 0 154 154" id="map-icon" xmlns="http://www.w3.org/2000/svg"><g filter="url(#arfilter0_dd_714_1223)"><circle cx="77" cy="69" r="45" fill="#B3DFF1"/><circle cx="77" cy="69" r="43" stroke="#1B283A" stroke-width="4"/></g><path d="M88.869 109A41.712 41.712 0 00104 100.549L77.807 65.96l22.29-31.402A41.342 41.342 0 0084.117 28h-.415L51.697 73.035V35.703a41.69 41.69 0 00-12.308 14.754 41.736 41.736 0 0012.437 52.115C53.79 99.801 67.39 80.645 67.39 80.645L88.869 109z" fill="#1B283A"/><defs><filter id="arfilter0_dd_714_1223" x="0" y="0" width="154" height="154" filterUnits="userSpaceOnUse" color-interpolation-filters="sRGB"><feFlood flood-opacity="0" result="BackgroundImageFix"/><feColorMatrix in="SourceAlpha" values="0 0 0 0 0 0 0 0 0 0 0 0 0 0 0 0 0 0 127 0" result="hardAlpha"/><feOffset dy="8"/><feGaussianBlur stdDeviation="16"/><feColorMatrix values="0 0 0 0 0 0 0 0 0 0 0 0 0 0 0 0 0 0 0.16 0"/><feBlend in2="BackgroundImageFix" result="effect1_dropShadow_714_1223"/><feColorMatrix in="SourceAlpha" values="0 0 0 0 0 0 0 0 0 0 0 0 0 0 0 0 0 0 127 0" result="hardAlpha"/><feOffset/><feGaussianBlur stdDeviation="2"/><feColorMatrix values="0 0 0 0 0 0 0 0 0 0 0 0 0 0 0 0 0 0 0.04 0"/><feBlend in2="effect1_dropShadow_714_1223" result="effect2_dropShadow_714_1223"/><feBlend in="SourceGraphic" in2="effect2_dropShadow_714_1223" result="shape"/></filter></defs></svg><svg fill="none" viewBox="0 0 32 32" id="modal-close" xmlns="http://www.w3.org/2000/svg"><path d="M1.001 31L31 1M1 1L31 31" stroke="#fff" stroke-width="2"/></svg><svg fill="none" viewBox="0 0 11 8" id="select-arrow" xmlns="http://www.w3.org/2000/svg"><path d="M.8 1.5l4.5 5 4.5-5" stroke="gray" stroke-width="1.5" stroke-linecap="round" stroke-linejoin="round"/></svg><svg fill="none" viewBox="0 0 11 8" id="select-arrow-hover" xmlns="http://www.w3.org/2000/svg"><path d="M.8 1.5l4.5 5 4.5-5" stroke="#fff" stroke-width="1.5" stroke-linecap="round" stroke-linejoin="round"/></svg><svg fill="none" viewBox="0 0 20 20" id="sh-heart" xmlns="http://www.w3.org/2000/svg"><path d="M10.004 17.25v0h-.008a.206.206 0 01-.144-.057s0 0 0 0L2.475 9.873h-.001A4.178 4.178 0 011.25 6.921c0-1.103.439-2.164 1.224-2.95A4.25 4.25 0 015.46 2.75a4.25 4.25 0 012.987 1.223L9.472 4.99h1.056l1.025-1.016s0 0 0 0A4.25 4.25 0 0114.54 2.75c1.12 0 2.194.44 2.986 1.221a4.177 4.177 0 011.224 2.951c0 1.104-.44 2.164-1.224 2.951l-.002.001-7.375 7.318h-.001a.2.2 0 01-.144.058z" stroke="#fff" stroke-width="1.5" stroke-linejoin="bevel"/></svg><svg fill="none" viewBox="0 0 15 15" id="sh-heart-mob" xmlns="http://www.w3.org/2000/svg"><path d="M7.5 12.213L2.52 7.25s0 0 0 0a2.646 2.646 0 01-.001-3.729 2.663 2.663 0 013.75.002l.702.698h1.058l.701-.698s0 0 0 0a2.663 2.663 0 013.751-.002 2.646 2.646 0 01-.002 3.73L7.5 12.212z" stroke="#fff" stroke-width="1.5" stroke-linejoin="bevel"/></svg><svg fill="none" viewBox="0 0 33 33" id="sh-mega-trigger" xmlns="http://www.w3.org/2000/svg"><path stroke="#fff" stroke-width="1.5" d="M9.479 12.75H25.48M9.479 17.75H21.48M9.479 22.75h8.001"/></svg><svg fill="none" viewBox="0 0 20 20" id="sh-phone" xmlns="http://www.w3.org/2000/svg"><path d="M17.376 7.388h-4.587m0 0l-.002-4.19m.002 4.19L18 2m-.97 14.051s-.993 1.01-1.236 1.305c-.397.437-.864.644-1.476.644-.06 0-.122 0-.181-.004-1.166-.077-2.25-.547-3.062-.948-2.223-1.11-4.174-2.686-5.795-4.683C3.94 10.7 3.046 9.16 2.453 7.507c-.365-1.009-.499-1.795-.44-2.536.04-.474.216-.867.542-1.203l1.339-1.382c.192-.186.396-.287.597-.287.247 0 .447.154.573.283l.012.012c.24.231.467.47.706.726.122.13.248.259.373.392L7.227 4.62c.416.429.416.826 0 1.255-.114.118-.224.235-.338.349-.33.348-.07.08-.412.397-.008.008-.016.012-.02.02-.337.349-.274.689-.204.92l.012.036c.279.697.672 1.353 1.268 2.135l.004.004c1.084 1.378 2.226 2.451 3.487 3.274.16.105.325.19.482.271.142.073.275.142.39.215.015.008.03.02.046.028a.83.83 0 00.389.102c.326 0 .53-.211.597-.28l.77-.794c.133-.138.345-.304.592-.304.243 0 .444.158.565.296l.008.008 2.163 2.232c.405.414.004 1.268.004 1.268z" stroke="#fff" stroke-width="1.5" stroke-linejoin="round"/></svg><svg fill="none" viewBox="0 0 15 15" id="sh-phone-mob" xmlns="http://www.w3.org/2000/svg"><path d="M13.493 5.378H9.766m0 0l-.002-3.405m.002 3.405L14 1m-.788 11.417s-.807.82-1.005 1.06c-.322.355-.701.523-1.199.523-.048 0-.099 0-.147-.003-.947-.063-1.828-.445-2.488-.77-1.805-.902-3.39-2.183-4.708-3.806C2.577 8.068 1.85 6.818 1.368 5.475c-.297-.82-.405-1.459-.357-2.061.032-.385.175-.705.44-.978L2.54 1.314c.156-.152.322-.234.485-.234.2 0 .363.125.465.23l.01.01c.195.188.38.382.574.59.099.105.201.21.303.319l.871.899c.338.348.338.671 0 1.02-.092.095-.182.19-.274.283-.268.283-.058.066-.335.323-.007.006-.013.01-.016.016-.275.283-.224.56-.166.747l.01.03c.226.566.545 1.1 1.03 1.735l.003.003c.88 1.12 1.809 1.991 2.833 2.66.13.085.264.154.392.22.115.06.223.115.316.175.013.006.025.016.038.023.109.056.21.082.316.082.265 0 .43-.171.485-.227l.625-.645c.108-.112.28-.247.482-.247.197 0 .36.128.459.24l.006.007 1.758 1.813c.329.336.003 1.03.003 1.03z" stroke="#fff" stroke-width="1.5" stroke-linejoin="round"/></svg><svg fill="none" viewBox="0 0 7 11" id="slider-arrow-next" xmlns="http://www.w3.org/2000/svg"><path d="M1 10l5-4.5L1 1" stroke="#fff" stroke-width="1.5" stroke-linecap="round" stroke-linejoin="round"/></svg><svg fill="none" viewBox="0 0 24 24" id="soc-ok" xmlns="http://www.w3.org/2000/svg"><path fill-rule="evenodd" clip-rule="evenodd" d="M12.069 12.394a6.396 6.396 0 01-4.444-1.81A6.111 6.111 0 015.773 6.24a6.186 6.186 0 011.844-4.378A6.472 6.472 0 0112.069 0c.834-.001 1.66.16 2.43.474.77.314 1.47.775 2.055 1.356a6.134 6.134 0 011.359 2.027c.31.757.464 1.567.451 2.383a5.958 5.958 0 01-.458 2.367 6.068 6.068 0 01-1.362 2.008 6.23 6.23 0 01-2.054 1.332 6.343 6.343 0 01-2.421.447zm0-8.718c-.352 0-.7.068-1.025.203-.324.134-.617.33-.862.578-.244.247-.436.54-.562.86a2.513 2.513 0 00-.174 1.008c-.005.335.06.666.19.975.132.309.326.588.572.82.246.232.538.413.858.53.32.118.661.17 1.003.154.34.008.677-.05.993-.17.316-.121.605-.302.849-.533.244-.23.438-.506.572-.811.135-.305.205-.633.209-.965a2.51 2.51 0 00-.174-1.007 2.558 2.558 0 00-.563-.861 2.626 2.626 0 00-.862-.578 2.675 2.675 0 00-1.024-.203zm2.535 13.847l3.585 3.419a1.748 1.748 0 01.526 1.24 1.717 1.717 0 01-.526 1.239 1.648 1.648 0 01-.568.427 1.684 1.684 0 01-1.967-.427L12.069 20l-3.498 3.42a1.784 1.784 0 01-1.312.513 2.125 2.125 0 01-1.31-.513 1.718 1.718 0 010-2.479l3.672-3.42A18.4 18.4 0 015.86 15.9a1.864 1.864 0 01-.808-1.121 1.827 1.827 0 01.196-1.358c.133-.207.308-.385.514-.524a1.868 1.868 0 011.428-.28c.245.052.476.15.68.291a8.352 8.352 0 004.242 1.153c1.494 0 2.96-.398 4.24-1.153a1.869 1.869 0 011.424-.294c.246.048.478.144.684.283.207.139.382.317.515.524.248.402.332.88.235 1.34a1.86 1.86 0 01-.76 1.139 19.157 19.157 0 01-3.847 1.624z" fill="#fff" fill-opacity=".75"/></svg><svg fill="none" viewBox="0 0 24 24" id="soc-tg" xmlns="http://www.w3.org/2000/svg"><path fill-rule="evenodd" clip-rule="evenodd" d="M1.65 10.562c6.442-2.807 10.738-4.657 12.888-5.551C20.675 2.458 21.95 2.015 22.782 2c.182-.004.591.041.856.256.223.182.285.427.314.599.03.172.066.563.037.87-.332 3.494-1.771 11.974-2.503 15.888-.31 1.656-.92 2.211-1.51 2.266-1.284.118-2.259-.848-3.502-1.663-1.945-1.275-3.043-2.069-4.931-3.313-2.182-1.438-.768-2.228.476-3.52.325-.338 5.98-5.48 6.089-5.948.014-.058.026-.275-.103-.39-.13-.115-.32-.076-.457-.045-.196.045-3.303 2.098-9.322 6.162-.882.605-1.681.9-2.397.885-.789-.017-2.307-.446-3.435-.813-1.384-.45-2.484-.688-2.388-1.452.05-.398.598-.805 1.644-1.22z" fill="#fff" fill-opacity=".75"/></svg><svg fill="none" viewBox="0 0 24 24" id="soc-vk" xmlns="http://www.w3.org/2000/svg"><path d="M13.072 19.976C4.872 19.976.195 14.354 0 5h4.107c.135 6.866 3.163 9.774 5.562 10.373V5h3.868v5.921c2.368-.255 4.856-2.953 5.696-5.921H23.1c-.644 3.658-3.343 6.356-5.261 7.465 1.919.9 4.992 3.253 6.161 7.51h-4.258c-.914-2.848-3.192-5.051-6.205-5.351v5.352h-.465z" fill="#fff" fill-opacity=".75"/></svg><svg fill="none" viewBox="0 0 24 24" id="soc-yt" xmlns="http://www.w3.org/2000/svg"><path d="M23.747 7.599s-.234-1.633-.956-2.356c-.909-.946-1.93-.946-2.408-1.002C17.037 4 12.005 4 12.005 4h-.01S6.963 4 3.6 4.241c-.469.056-1.49.056-2.409 1.002-.712.723-.946 2.356-.946 2.356S0 9.529 0 11.449v1.799c0 1.92.244 3.84.244 3.84s.234 1.632.956 2.355c.909.947 2.108.919 2.642 1.011 1.921.186 8.153.242 8.153.242s5.042-.01 8.397-.25c.469-.056 1.49-.056 2.409-1.003.721-.723.955-2.356.955-2.356s.244-1.92.244-3.84v-1.799c-.01-1.92-.253-3.85-.253-3.85zM9.521 15.427V8.758l6.485 3.349-6.485 3.32z" fill="#fff" fill-opacity=".75"/></svg><svg fill="none" viewBox="0 0 14 14" id="views-icon" xmlns="http://www.w3.org/2000/svg"><path d="M7 5.25a1.75 1.75 0 100 3.5 1.75 1.75 0 000-3.5zm0 4.667a2.917 2.917 0 110-5.834 2.917 2.917 0 010 5.834zm0-7.292A6.899 6.899 0 00.585 7a6.899 6.899 0 006.417 4.375A6.899 6.899 0 0013.417 7a6.899 6.899 0 00-6.416-4.375z" fill="#252831" fill-opacity=".5" opacity=".5"/></svg></svg>