<?xml version="1.0" encoding="utf-8"?><svg viewBox="0 0 33 33" xmlns="http://www.w3.org/2000/svg" xmlns:xlink="http://www.w3.org/1999/xlink"><style>:root>svg{display:none}:root>svg:target{display:block}</style><svg fill="none" viewBox="0 0 20 20" id="sh-heart" xmlns="http://www.w3.org/2000/svg"><path d="M10.004 17.25v0h-.008a.206.206 0 01-.144-.057s0 0 0 0L2.475 9.873h-.001A4.178 4.178 0 011.25 6.921c0-1.103.439-2.164 1.224-2.95A4.25 4.25 0 015.46 2.75a4.25 4.25 0 012.987 1.223L9.472 4.99h1.056l1.025-1.016s0 0 0 0A4.25 4.25 0 0114.54 2.75c1.12 0 2.194.44 2.986 1.221a4.177 4.177 0 011.224 2.951c0 1.104-.44 2.164-1.224 2.951l-.002.001-7.375 7.318h-.001a.2.2 0 01-.144.058z" stroke="#fff" stroke-width="1.5" stroke-linejoin="bevel"/></svg><svg fill="none" viewBox="0 0 33 33" id="sh-mega-trigger" xmlns="http://www.w3.org/2000/svg"><path stroke="#fff" stroke-width="1.5" d="M9.479 12.75H25.48M9.479 17.75H21.48M9.479 22.75h8.001"/></svg><svg fill="none" viewBox="0 0 20 20" id="sh-phone" xmlns="http://www.w3.org/2000/svg"><path d="M17.376 7.388h-4.587m0 0l-.002-4.19m.002 4.19L18 2m-.97 14.051s-.993 1.01-1.236 1.305c-.397.437-.864.644-1.476.644-.06 0-.122 0-.181-.004-1.166-.077-2.25-.547-3.062-.948-2.223-1.11-4.174-2.686-5.795-4.683C3.94 10.7 3.046 9.16 2.453 7.507c-.365-1.009-.499-1.795-.44-2.536.04-.474.216-.867.542-1.203l1.339-1.382c.192-.186.396-.287.597-.287.247 0 .447.154.573.283l.012.012c.24.231.467.47.706.726.122.13.248.259.373.392L7.227 4.62c.416.429.416.826 0 1.255-.114.118-.224.235-.338.349-.33.348-.07.08-.412.397-.008.008-.016.012-.02.02-.337.349-.274.689-.204.92l.012.036c.279.697.672 1.353 1.268 2.135l.004.004c1.084 1.378 2.226 2.451 3.487 3.274.16.105.325.19.482.271.142.073.275.142.39.215.015.008.03.02.046.028a.83.83 0 00.389.102c.326 0 .53-.211.597-.28l.77-.794c.133-.138.345-.304.592-.304.243 0 .444.158.565.296l.008.008 2.163 2.232c.405.414.004 1.268.004 1.268z" stroke="#fff" stroke-width="1.5" stroke-linejoin="round"/></svg><svg fill="none" viewBox="0 0 7 11" id="slider-arrow-next" xmlns="http://www.w3.org/2000/svg"><path d="M1 10l5-4.5L1 1" stroke="#fff" stroke-width="1.5" stroke-linecap="round" stroke-linejoin="round"/></svg></svg>